<?xml version="1.0" encoding="UTF-8" standalone="no"?>
<svg
   xmlns:dc="http://purl.org/dc/elements/1.1/"
   xmlns:cc="http://creativecommons.org/ns#"
   xmlns:rdf="http://www.w3.org/1999/02/22-rdf-syntax-ns#"
   xmlns:svg="http://www.w3.org/2000/svg"
   xmlns="http://www.w3.org/2000/svg"
   xmlns:sodipodi="http://sodipodi.sourceforge.net/DTD/sodipodi-0.dtd"
   xmlns:inkscape="http://www.inkscape.org/namespaces/inkscape"
   width="50"
   height="50"
   viewBox="0 0 13.229166 13.229167"
   version="1.1"
   id="svg8"
   inkscape:version="1.0.1 (3bc2e813f5, 2020-09-07)"
   sodipodi:docname="defense.svg">
  <defs
     id="defs2" />
  <sodipodi:namedview
     id="base"
     pagecolor="#ffffff"
     bordercolor="#666666"
     borderopacity="1.0"
     inkscape:pageopacity="0.0"
     inkscape:pageshadow="2"
     inkscape:zoom="7.9426713"
     inkscape:cx="28.130504"
     inkscape:cy="36.530737"
     inkscape:document-units="mm"
     inkscape:current-layer="layer1"
     inkscape:document-rotation="0"
     showgrid="false"
     units="px"
     inkscape:window-width="1600"
     inkscape:window-height="836"
     inkscape:window-x="0"
     inkscape:window-y="27"
     inkscape:window-maximized="1"
     inkscape:snap-global="false" />
  <metadata
     id="metadata5">
    <rdf:RDF>
      <cc:Work
         rdf:about="">
        <dc:format>image/svg+xml</dc:format>
        <dc:type
           rdf:resource="http://purl.org/dc/dcmitype/StillImage" />
        <dc:title />
      </cc:Work>
    </rdf:RDF>
  </metadata>
  <g
     inkscape:label="레이어 1"
     inkscape:groupmode="layer"
     id="layer1">
    <path
       id="path918"
       style="fill:none;fill-rule:evenodd;stroke:#ff9100;stroke-width:1.08747;stroke-miterlimit:4;stroke-dasharray:none;stroke-opacity:0.64999998"
       d="m 10.293455,14.065214 -11.3780537,0.297017 0.017626,-11.6574446 c 6.2741909,0 11.3604277,5.0862367 11.3604277,11.3604276 z"
       sodipodi:nodetypes="cccc" />
    <path
       style="fill:none;stroke:#ff9100;stroke-width:0.482865px;stroke-linecap:butt;stroke-linejoin:miter;stroke-opacity:0.64999998"
       d="M 3.8332904,8.8937597 C 2.0113372,11.97156 2.0113372,11.97156 2.0113372,11.97156"
       id="path921" />
    <path
       style="fill:none;stroke:#ff9100;stroke-width:0.482865px;stroke-linecap:butt;stroke-linejoin:miter;stroke-opacity:0.64999998"
       d="M 1.4318695,9.5800311 4.3888549,11.605445"
       id="path923"
       sodipodi:nodetypes="cc" />
    <path
       style="fill:none;stroke:#ff9100;stroke-width:0.482865px;stroke-linecap:butt;stroke-linejoin:miter;stroke-opacity:0.64999998"
       d="M 4.5673933,8.9701108 4.9945634,7.8760342 6.2238566,11.30893"
       id="path925"
       sodipodi:nodetypes="ccc" />
    <path
       style="fill:none;stroke:#ff9100;stroke-width:0.2039px;stroke-linecap:butt;stroke-linejoin:miter;stroke-opacity:0.64999998"
       d="M 7.5507046,4.6187893 C 7.3539722,3.6929098 7.2250039,2.7588698 7.1450092,1.8167068 7.1169345,1.4860611 7.1246024,1.7372813 7.1246024,1.3814035 c 0,-0.017702 -0.00301,-0.070561 0,-0.053109 0.037168,0.2184991 0.079688,0.4368366 0.097036,0.6577944 0.022711,0.289312 0,0.5804049 0,0.8706072 V 4.1354012 5.1148343 5.359693 5.4601296 c 0,0.00678 -0.00277,0.026543 0,0.020349 0.036459,-0.081726 0.1651579,-1.0706549 0.1701109,-1.0990509 0.3642556,-2.088397 0.1173241,-0.4454718 0.2448585,-1.5507692 0.06055,-0.524756 0.030356,-0.04971 0.1020252,-0.7345753 0.00886,-0.084693 0,-0.1703109 0,-0.2554664 v -0.090842 c 0,0.3083262 0.017524,0.6222804 0,0.9298976 -0.013463,0.2362879 -0.046031,0.4711855 -0.061213,0.707369 -0.013795,0.2145793 0,0.4377731 0,0.6529555 0,0.07614 -0.019197,0.1804251 0,0.1483133 C 7.8301058,3.9328723 7.8511275,3.8049411 7.9648435,3.5192987 8.0327914,3.3486265 8.1318442,3.190463 8.1892968,3.0159786 8.2257561,2.9052475 8.2402443,2.7883693 8.270916,2.6758977 8.3007401,2.5665314 8.3733196,2.4783651 8.3933449,2.3663275 8.3993559,2.3326803 8.4101219,2.2315722 8.412796,2.2656478 8.4563376,2.8205142 8.2284649,3.4157972 8.088184,3.9429156 8.0141865,4.2209589 7.9771669,4.5079128 7.9045395,4.7863166 7.8962243,4.8182021 7.7519552,5.2494399 7.8036819,5.2547576 8.0492578,5.280004 8.76191,4.7319096 8.9010604,4.641793 9.2112667,4.4408977 9.5428438,4.2584545 9.86009,4.0704568 c 0.368317,-0.2182617 0.156531,-0.079408 0.510121,-0.2856684 0.06852,-0.039967 0.138025,-0.078469 0.204049,-0.1224287 0.01585,-0.010554 0.05247,-0.055119 0.0404,-0.040395 -0.462795,0.564237 -1.0864655,0.9461782 -1.6281573,1.4213462 -0.1031573,0.090488 -0.3548175,0.2165592 -0.4253857,0.3102049 -0.033145,0.043985 0.1731999,0.1404805 0.4267266,0.2249893 0.6666592,0.2222194 0.5237943,0.016655 1.1840754,0.2587583 0.143505,0.052618 0.286346,0.1070789 0.428502,0.1632392 0.07733,0.030551 0.145059,0.084124 0.224453,0.1088249 0.06623,0.020606 0.13632,0.025841 0.20405,0.04081 0.01311,0.0029 0.05104,0.00883 0.0382,0.012732 -0.278019,0.084456 -0.77092,-0.042927 -1.022014,-0.098725 C 9.464294,5.9350753 9.7020726,6.2001861 9.1262943,6.0502446 8.8058985,5.9668081 8.4847066,5.8858409 8.1672663,5.7917837 8.0560557,5.7588323 7.9945689,5.7251897 7.8834793,5.7102598 7.8245171,5.702336 7.6491563,5.6999463 7.7067776,5.6851406 c 0.1231348,-0.031639 0.2542696,0 0.3814049,0 0.6996212,0 -0.025763,-0.010317 0.6121458,0.027206 0.1765946,0.010389 0.354423,-0.00317 0.5305259,0.013604 0.1514037,0.01442 0.2984601,0.059331 0.4489066,0.081619 0.098859,0.014646 0.2300783,0 0.3264782,0 0.01256,0 0.04726,0.00814 0.03769,0 C 9.5130953,5.3561374 8.8487712,5.0687516 8.2296355,4.764615 8.1711896,4.7359053 7.6196043,4.510676 7.590967,4.4701064 7.5802936,4.4549847 7.594512,4.4318599 7.6044303,4.4162389 7.6623829,4.3250514 7.7199171,4.2322123 7.7928311,4.152479 8.0991757,3.8174843 8.560385,3.4446038 8.9150985,3.1594416 9.0083984,3.0844353 9.1126462,3.0228196 9.2007658,2.94179 9.3105707,2.8408202 9.3997492,2.7191575 9.5068391,2.6153126 9.6322435,2.4937083 9.793775,2.4091094 9.9122373,2.2778028 c 0.02658,-0.029459 0.040035,-0.1032129 0.07755,-0.090299 0.039048,0.013441 0.024845,0.082262 0.016738,0.1227562 C 9.9808403,2.4385926 9.9440574,2.5659924 9.890149,2.6852527 9.3140433,3.959734 9.6010608,3.2764338 9.0943587,4.1135934 9.0334468,4.2142282 8.9934648,4.326715 8.9311194,4.4264673 8.8570834,4.5449213 8.7622784,4.6493576 8.6862625,4.7665492 8.6421506,4.8345603 8.5610154,5.0339684 8.5245429,5.1033366 8.4635,5.2194319 8.416603,5.2411898 8.4232814,5.2386055 8.5960521,5.1717488 8.8883231,4.8565957 8.9321853,4.8073871 9.5633546,4.0992855 10.113604,3.3278175 10.707409,2.5900586 10.825936,2.4427972 10.926443,2.2811737 11.05429,2.141151 c 0.06759,-0.074029 0.149962,-0.1331313 0.222549,-0.2022698 0.01946,-0.018539 0.175921,-0.1910775 0.179543,-0.17292 0.01571,0.078741 -0.486397,0.7704475 -0.529218,0.8229363 C 10.399764,3.2353876 9.8421146,3.8630824 9.2947748,4.4933514 9.1673706,4.6400591 9.0376206,4.784729 8.9070822,4.9286555 8.7447299,5.1076593 8.4776745,5.2825815 8.38021,5.5087244 8.37713,5.5158344 8.395022,5.5041844 8.402235,5.5013844 8.5067957,5.4607794 8.6140721,5.4264077 8.7155062,5.3785285 9.1203156,5.1874488 9.5005353,4.9435117 9.8989891,4.7391764 10.215974,4.5766201 10.512071,4.4283779 10.837614,4.2902695"
       id="path927"
       sodipodi:nodetypes="cssccscccsccsssccssccssccccssssscssssssscsssssssssscsscssssssccsscssssscccssccssc" />
    <path
       style="fill:none;stroke:#ff9100;stroke-width:0.2039px;stroke-linecap:butt;stroke-linejoin:miter;stroke-opacity:0.64999998"
       d="M 7.3545047,4.6550207 C 6.9371209,4.1265115 6.6521042,3.5176463 6.3678724,2.9112873 6.3135515,2.7954034 6.2236103,2.6845842 6.20733,2.5571493 c -6.525e-4,-0.00511 0.0098,0.00442 0.01285,0.00857 0.037946,0.051712 0.0718,0.1063378 0.1095285,0.1582088 0.2680907,0.3685828 0.1236787,0.1160805 0.326478,0.5577332 0.2591764,0.5644284 0.4388772,1.153021 0.6325516,1.7412149 0.053113,0.161295 0.1367858,0.2973159 0.183642,0.4625109 0.013533,0.047719 0,-0.099201 0,-0.148802 0,-0.1043428 0,-0.2086856 0,-0.3130283 0,-0.3086812 0.06122,-0.6048501 0.06122,-0.9114171 0,-0.051052 -0.00563,-0.2971599 0,-0.3005889 0.00724,-0.00442 0.017185,0.00662 0.021162,0.014106 0.041476,0.078163 0.085407,0.1560446 0.1136397,0.2399067 0.1089364,0.3235764 0.1227679,0.7318005 0.1836429,1.0474498 0.1570579,0.8143782 0.021609,-0.2456125 0.1224304,0.4489069 0.020029,0.1379665 -0.00778,0.3028879 0.020407,0.438791 0.010951,0.052792 0.024029,0.1084862 0.056411,0.1515912 0.1954662,0.2601528 1.2866695,0.6007673 1.6072934,0.7168027 0.3450975,0.1248926 0.1004338,0.041207 0.2652645,0.1088269 0.067771,0.027805 0.135781,0.055047 0.204048,0.081618 0.01288,0.00501 0.05316,0.01297 0.03934,0.013109 C 9.531432,7.0792045 8.861866,6.7397455 8.3204193,6.4526146 8.1534609,6.3640765 7.9963606,6.2578961 7.8307031,6.1669472 7.6948672,6.0923709 7.7953226,6.1569666 7.7093153,6.099625 7.698087,6.092142 7.6623983,6.0744942 7.6756303,6.0771676 7.9294099,6.1284418 8.1728458,6.2204596 8.4173922,6.3019751 8.8184593,6.4356635 8.55643,6.3229606 8.968324,6.5060244 9.3490245,6.6752253 9.4628344,6.6766711 9.0829115,6.2883841 8.8373471,6.0374129 8.5786601,5.7996208 8.3279316,5.553808 8.2856307,5.5123395 7.8897254,5.1322087 7.8852803,5.0882158 7.8773966,5.0102027 8.0111385,4.9800174 8.0889778,4.9705677 c 0.2160655,-0.026231 0.4355089,0.00945 0.6529562,0 0.096098,-0.00418 0.1898104,-0.032822 0.2856674,-0.04081 0.2218747,-0.018489 0.440428,0.013522 0.6529563,0.068016 0.066977,0.017175 0.243039,0.042406 0.3060733,0.054413 0.041068,0.00782 0.081038,0.021331 0.122428,0.027206 0.02285,0.00324 0.0849,-0.016942 0.06923,0 -0.02762,0.029862 -0.07311,0.037357 -0.112643,0.046936 -0.1133567,0.027464 -0.2291718,0.043593 -0.3440599,0.063714 -0.421786,0.07387 -0.8154357,0.1317505 -1.244697,0.1496358 -0.2022787,0.00843 -0.4237727,-0.032353 -0.6237156,0 -0.055225,0.00893 0.048528,0.1049192 0.091591,0.1406323 0.2248085,0.1864503 0.3758554,0.2790272 0.6325518,0.3808907 0.5427884,0.2153928 1.0916726,0.3509161 1.6527947,0.5033198 0.097,0.026341 0.143694,0.058384 0.244857,0.068017 0.130998,0.012477 0.269856,0 0.402263,0 0.13759,0 -0.275149,-0.00578 -0.412592,-0.012153 C 10.31489,6.4134453 10.165194,6.4047643 10.015732,6.3931813 9.477442,6.3514541 8.9380892,6.2933627 8.4037448,6.2163405 8.2606017,6.1957072 8.1188504,6.1654208 7.9752418,6.1483248 7.8464828,6.1329958 7.6891151,6.1815204 7.5686059,6.1080014 c -0.042648,-0.026017 0.098754,0.015849 0.1485531,0.019807 0.1412442,0.011224 0.2826711,0.021231 0.4242898,0.025716 0.5967823,0.018899 1.1795257,-0.1224301 1.7752213,-0.1224301"
       id="path929" />
  </g>
</svg>
