<?xml version="1.0" encoding="UTF-8" standalone="no"?>
<svg
   xmlns:dc="http://purl.org/dc/elements/1.1/"
   xmlns:cc="http://creativecommons.org/ns#"
   xmlns:rdf="http://www.w3.org/1999/02/22-rdf-syntax-ns#"
   xmlns:svg="http://www.w3.org/2000/svg"
   xmlns="http://www.w3.org/2000/svg"
   xmlns:sodipodi="http://sodipodi.sourceforge.net/DTD/sodipodi-0.dtd"
   xmlns:inkscape="http://www.inkscape.org/namespaces/inkscape"
   width="50"
   height="50"
   viewBox="0 0 13.229166 13.229167"
   version="1.1"
   id="svg8"
   inkscape:version="1.0.1 (3bc2e813f5, 2020-09-07)"
   sodipodi:docname="noitem.svg">
  <defs
     id="defs2" />
  <sodipodi:namedview
     id="base"
     pagecolor="#ffffff"
     bordercolor="#666666"
     borderopacity="1.0"
     inkscape:pageopacity="0.0"
     inkscape:pageshadow="2"
     inkscape:zoom="9.0895379"
     inkscape:cx="32.235938"
     inkscape:cy="32.662984"
     inkscape:document-units="mm"
     inkscape:current-layer="layer1"
     inkscape:document-rotation="0"
     showgrid="false"
     units="px"
     inkscape:window-width="1600"
     inkscape:window-height="836"
     inkscape:window-x="0"
     inkscape:window-y="27"
     inkscape:window-maximized="1" />
  <metadata
     id="metadata5">
    <rdf:RDF>
      <cc:Work
         rdf:about="">
        <dc:format>image/svg+xml</dc:format>
        <dc:type
           rdf:resource="http://purl.org/dc/dcmitype/StillImage" />
        <dc:title></dc:title>
      </cc:Work>
    </rdf:RDF>
  </metadata>
  <g
     inkscape:label="레이어 1"
     inkscape:groupmode="layer"
     id="layer1">
    <path
       style="fill:none;stroke:#000000;stroke-width:0.548981;stroke-linecap:butt;stroke-linejoin:miter;stroke-miterlimit:4;stroke-dasharray:none;stroke-opacity:1"
       d="m 1.7362758,1.8617972 c -0.029177,0.3299262 -0.06744,0.6669564 -0.057878,0.9984497 0.00279,0.096498 0.034598,0.1902348 0.042962,0.2864099 0.044523,0.5120172 0.0778,1.0334771 0.1074032,1.5466118 0.030468,0.5281219 0,1.0660443 0,1.5957769"
       id="path833" />
    <path
       style="fill:none;stroke:#000000;stroke-width:0.548981;stroke-linecap:butt;stroke-linejoin:miter;stroke-miterlimit:4;stroke-dasharray:none;stroke-opacity:1"
       d="m 1.7362758,1.8617972 c 0.088785,0.3155021 0.2905084,0.5966313 0.4817285,0.860697 0.1431778,0.1977215 0.3032293,0.3828798 0.4725755,0.5584983 0.085404,0.088568 0.2011056,0.1612641 0.2781515,0.2567439 0.3063307,0.3796229 0.659741,0.7089982 0.985903,1.071853 0.1361165,0.1514294 0.2325305,0.3251025 0.3809331,0.4664108 0.074198,0.07065 0.1854924,0.1429229 0.228423,0.2351363 0.057057,0.1225566 -0.1122143,-0.1026236 0.03379,0.086145 0.025991,0.033605 0.071575,0.050189 0.093567,0.086536 0.00834,0.013783 -0.00508,0.03304 0,0.04833 0.019473,0.058669 0.1652284,0.2470164 0.19825,0.2911741 0.055354,0.074022 0.1322763,0.1341485 0.1872042,0.2078056 0.016328,0.021894 0.030373,0.045619 0.042155,0.070259 0.00258,0.00538 -0.00229,0.023418 0,0.017905 0.169997,-0.4100466 -0.1734825,-1.5564061 -0.2188549,-2.0706243 -0.021057,-0.2386438 0,-0.4908588 0,-0.7303446 0,-0.5340253 0,-1.068051 0,-1.6020763"
       id="path837" />
    <path
       style="fill:none;stroke:#000000;stroke-width:0.548981;stroke-linecap:butt;stroke-linejoin:miter;stroke-miterlimit:4;stroke-dasharray:none;stroke-opacity:1"
       d="M 7.1824735,3.7854954 C 6.9284092,3.7808479 6.6692036,3.8718078 6.4511099,4.002664 6.2112903,4.1465559 6.1769978,4.2519472 6.1301,4.5489662 6.104971,4.7081163 6.0587607,5.1207773 6.1282326,5.278269 c 0.098635,0.2235732 0.3383149,0.527726 0.5883201,0.5836943 0.048295,0.010811 0.099564,-0.00758 0.1484713,0 0.1791454,0.027749 0.3467715,0.090523 0.5370181,0.042962 C 7.5615924,5.8650373 7.6807979,5.754364 7.8101762,5.6614768 8.0414689,5.4954199 8.3068418,5.3053111 8.4507101,5.0544407 8.4954265,4.9764619 8.480036,4.8732614 8.4917073,4.7868095 8.5296777,4.5056367 8.4357242,4.2847495 8.2326213,4.0803454 8.0460883,3.8926181 7.6196754,3.9167319 7.3732707,3.9167319"
       id="path841" />
    <path
       style="fill:none;stroke:#000000;stroke-width:0.548981;stroke-linecap:butt;stroke-linejoin:miter;stroke-miterlimit:4;stroke-dasharray:none;stroke-opacity:1"
       d="m 1.2212469,8.2430707 c 0.4567459,-0.030439 0.9279503,0.049844 1.380967,-0.02486"
       id="path843" />
    <path
       style="fill:none;stroke:#000000;stroke-width:0.548981;stroke-linecap:butt;stroke-linejoin:miter;stroke-miterlimit:4;stroke-dasharray:none;stroke-opacity:1"
       d="m 1.9310751,9.2593268 c 0,0.7440092 0,1.4880182 0,2.2320282"
       id="path845" />
    <path
       style="fill:none;stroke:#000000;stroke-width:0.548981;stroke-linecap:butt;stroke-linejoin:miter;stroke-miterlimit:4;stroke-dasharray:none;stroke-opacity:1"
       d="m 3.1452453,9.2119439 c 0.4201017,-0.00163 0.8423688,0.050544 1.2630294,0.02654 C 4.7105846,9.221242 4.9850046,9.0869044 5.2889839,9.0666385"
       id="path847" />
    <path
       style="fill:none;stroke:#000000;stroke-width:0.548981;stroke-linecap:butt;stroke-linejoin:miter;stroke-miterlimit:4;stroke-dasharray:none;stroke-opacity:1"
       d="m 4.0645284,7.8482607 c 0,0.1333284 0,0.2666559 0,0.3999843 0,0.1241104 -0.00563,0.2483492 0,0.3723312 0.015928,0.3504157 0.056573,0.6961093 0.085923,1.0444511 0.016337,0.193919 -0.01873,0.4324317 0.041982,0.6178417 0.0158,0.04825 0.046262,0.09074 0.062938,0.138704 0.020912,0.06013 -0.023137,0.144319 0,0.203481 0.0304,0.07773 0.097201,0.231941 0.1482312,0.311107 0.037995,0.05895 0.093795,0.106096 0.126383,0.168192 0.036458,0.06947 0.07798,0.216949 0.1341807,0.27091 0.1290174,0.123875 0.4326806,0.01271 0.552992,-0.07945 0.073699,-0.05646 0.1276797,-0.134839 0.1933262,-0.200485"
       id="path849" />
    <path
       style="fill:none;stroke:#000000;stroke-width:0.548981;stroke-linecap:butt;stroke-linejoin:miter;stroke-miterlimit:4;stroke-dasharray:none;stroke-opacity:1"
       d="M 6.3807613,10.198425 C 6.7056184,10.126675 7.3059408,10.100645 7.4537001,9.7888553 7.517818,9.6535593 7.6785948,8.7719732 7.2031975,8.9109527 7.1073707,8.9389715 6.9961487,8.9595051 6.9303022,9.0215089 6.7812821,9.1618315 6.664303,9.3292593 6.5614453,9.4927033 c -0.2122234,0.337228 0.1714203,-0.2491202 -0.08679,0.195372 -0.083316,0.143423 -0.1529755,0.176153 -0.1952774,0.3217917 -0.1302241,0.448344 -0.089941,0.927715 0.3012416,1.28476 0.2424893,0.221328 1.0993714,-0.218741 1.1729342,-0.252835 0.2723028,-0.126204 0.5159743,-0.311338 0.7372128,-0.487113"
       id="path851" />
    <path
       style="fill:none;stroke:#000000;stroke-width:0.548981;stroke-linecap:butt;stroke-linejoin:miter;stroke-miterlimit:4;stroke-dasharray:none;stroke-opacity:1"
       d="m 9.1008892,8.5005888 c 0,0.4400353 0,0.8800722 0,1.3201055 0,0.5571157 0,1.1142297 0,1.6713427 0,0.0068 0,-0.01341 0,-0.02011 0,-0.04917 0,-0.09836 0,-0.147534 0,-0.21479 0,-0.429581 0,-0.64437 0,-0.413287 0.017764,-0.6929957 0.1234599,-1.0848177 0.022767,-0.08441 0.1409722,-0.4053793 0.2225394,-0.4256141 0.069747,-0.017297 0.1371666,-0.07058 0.2101889,-0.081386 0.1283299,-0.018993 0.4782386,-0.096481 0.5783906,0.00436 0.01177,0.011858 -0.0088,0.035924 0,0.050124 0.176236,0.2847674 -0.03573,-0.1352385 0.116184,0.1566296 0.08556,0.1643933 0.04091,1.2104392 0.04091,1.4780132 0,0.0013 0,-0.03459 0,-0.03591 0,-0.04117 -0.0043,-0.08254 0,-0.123481 0.012,-0.115725 0.09626,-0.32278 0.123919,-0.396537 0.117702,-0.3138717 0.366851,-0.9266465 0.671513,-1.1185077 0.03203,-0.020168 0.09384,-0.00537 0.118635,-0.00932 0.04486,-0.00716 0.114376,-0.054684 0.163658,-0.054551 0.251448,6.793e-4 0.238463,0.200971 0.276064,0.3819514 0.129695,0.6242323 0.06446,1.4351613 0.06446,2.1015083"
       id="path855" />
  </g>
</svg>
