<?xml version="1.0" encoding="UTF-8" standalone="no"?>
<svg
   xmlns:dc="http://purl.org/dc/elements/1.1/"
   xmlns:cc="http://creativecommons.org/ns#"
   xmlns:rdf="http://www.w3.org/1999/02/22-rdf-syntax-ns#"
   xmlns:svg="http://www.w3.org/2000/svg"
   xmlns="http://www.w3.org/2000/svg"
   xmlns:sodipodi="http://sodipodi.sourceforge.net/DTD/sodipodi-0.dtd"
   xmlns:inkscape="http://www.inkscape.org/namespaces/inkscape"
   width="50"
   height="50"
   viewBox="0 0 13.229166 13.229167"
   version="1.1"
   id="svg8"
   inkscape:version="1.0.1 (3bc2e813f5, 2020-09-07)"
   sodipodi:docname="reflect.svg">
  <defs
     id="defs2" />
  <sodipodi:namedview
     id="base"
     pagecolor="#ffffff"
     bordercolor="#666666"
     borderopacity="1.0"
     inkscape:pageopacity="0.0"
     inkscape:pageshadow="2"
     inkscape:zoom="7.9426713"
     inkscape:cx="28.130504"
     inkscape:cy="28.954803"
     inkscape:document-units="mm"
     inkscape:current-layer="layer1"
     inkscape:document-rotation="0"
     showgrid="false"
     units="px"
     inkscape:window-width="1600"
     inkscape:window-height="836"
     inkscape:window-x="0"
     inkscape:window-y="27"
     inkscape:window-maximized="1"
     inkscape:snap-global="false" />
  <metadata
     id="metadata5">
    <rdf:RDF>
      <cc:Work
         rdf:about="">
        <dc:format>image/svg+xml</dc:format>
        <dc:type
           rdf:resource="http://purl.org/dc/dcmitype/StillImage" />
        <dc:title />
      </cc:Work>
    </rdf:RDF>
  </metadata>
  <g
     inkscape:label="레이어 1"
     inkscape:groupmode="layer"
     id="layer1">
    <path
       style="fill:none;stroke:#ff9100;stroke-width:0.445624px;stroke-linecap:butt;stroke-linejoin:miter;stroke-opacity:0.64999998"
       d="M 4.240901,1.8126181 C 2.5594685,4.653041 2.5594685,4.653041 2.5594685,4.653041"
       id="path921" />
    <path
       style="fill:none;stroke:#ff9100;stroke-width:0.445624px;stroke-linecap:butt;stroke-linejoin:miter;stroke-opacity:0.64999998"
       d="M 2.024693,2.4459617 4.7536169,4.3151616"
       id="path923"
       sodipodi:nodetypes="cc" />
    <path
       style="fill:none;stroke:#ff9100;stroke-width:0.445624px;stroke-linecap:butt;stroke-linejoin:miter;stroke-opacity:0.64999998"
       d="M 4.9183852,1.8830817 5.3126092,0.87338733 6.4470915,4.0415167"
       id="path925"
       sodipodi:nodetypes="ccc" />
    <path
       style="fill:none;stroke:#ff9100;stroke-width:0.530411;stroke-linecap:butt;stroke-linejoin:miter;stroke-miterlimit:4;stroke-dasharray:none;stroke-opacity:0.64999998"
       d="M 8.6354185,1.3542666 6.1991489,7.8812956 12.089103,5.0962029"
       id="path949"
       sodipodi:nodetypes="ccc" />
    <path
       style="fill:none;stroke:#ff9100;stroke-width:0.530411;stroke-linecap:butt;stroke-linejoin:miter;stroke-miterlimit:4;stroke-dasharray:none;stroke-opacity:0.64999998"
       d="M 10.765896,4.9143343 12.144352,5.0364649 11.352379,6.227534"
       id="path951"
       sodipodi:nodetypes="ccc" />
    <path
       style="fill:none;stroke:#ff9100;stroke-width:0.193657px;stroke-linecap:butt;stroke-linejoin:miter;stroke-opacity:0.64999998"
       d="M 0.9368483,9.990042 C 0.99062071,9.6317304 1.036199,9.2722312 1.0981656,8.9151094 1.3414577,7.5129831 1.6701057,6.1236732 1.9569087,4.7293965 c 0.057259,-0.2783634 0.070478,-0.407996 0.099578,-0.6914745 0.00123,-0.011943 0,-0.047998 0,-0.035998 0,0.6363229 0.00186,-0.00987 -0.1951898,1.7952941 C 1.7176411,7.1132578 1.5762034,8.4298442 1.423153,9.7449105 1.2385919,11.330727 1.2484181,10.990076 1.1642496,11.919913 c -0.014031,0.154999 -0.024173,0.310315 -0.039832,0.465174 -0.00426,0.04219 -0.016199,0.0835 -0.019916,0.125723 -0.00294,0.03342 -0.00265,0.134011 0,0.100578 C 1.1678486,11.811595 1.33821,11.067125 1.502815,10.272946 1.5957556,9.8245351 1.669681,9.3722113 1.7816345,8.9277126 1.9221095,8.3699717 2.1103269,7.823859 2.2596105,7.2681733 2.3029423,7.1068764 2.3178571,6.9396222 2.3591885,6.7778551 2.4125189,6.5691236 2.498672,6.3689999 2.5583453,6.1618137 2.5666816,6.132869 2.5814129,6.0439549 2.5782606,6.0738073 2.4589901,7.2031949 1.9451006,8.2830121 1.502816,9.330026 1.3437837,9.7065009 1.1777095,10.078103 1.0049246,10.448957 c -0.0136044,0.0292 -0.0248396,0.05942 -0.0398313,0.08801 -0.004625,0.0088 -0.0220726,0.03295 -0.0187156,0.02363 C 1.042442,10.293944 1.2531766,10.077441 1.3920515,9.8282755 1.5671172,9.5141779 1.7126262,9.1857474 1.8899429,8.8727838 2.2873504,8.1713613 2.4622204,7.9907335 2.9255563,7.3138225 3.1334272,7.0101334 2.9876983,7.1462574 3.2641224,6.8612202 c 0.00498,-0.00514 0.00299,0.014561 0,0.02094 -0.074943,0.159583 -0.1518569,0.318393 -0.2330109,0.475229 C 2.9283466,7.5559896 2.8281193,7.756147 2.7124608,7.9482846 2.4495462,8.385052 2.1618013,8.8080753 1.8959194,9.2432288 1.7554897,9.4730625 1.3963243,10.273987 1.2195269,10.399177 1.1345244,10.459369 1.4256552,10.331023 1.5034159,10.262612 2.1167915,9.723005 2.6573458,9.0963548 3.1962459,8.4899216 3.3409326,8.3271027 3.4697197,8.1344566 3.63439,7.987032 c 0.00847,-0.00759 0.033875,-0.01099 0.03498,0 C 3.711592,8.4069691 3.645302,8.4179163 3.450298,8.8629756 3.285323,9.2394995 2.9866181,9.8807923 2.7930821,10.233354 c -0.1038053,0.1891 -0.2302072,0.366383 -0.338566,0.55318 -0.1500807,0.258718 -0.2788195,0.528035 -0.4182287,0.792052 -0.013277,0.02515 -0.067181,0.0645 -0.039832,0.07543 0.0327,0.01308 0.059945,-0.0361 0.088601,-0.05594 C 2.1857056,11.52842 2.287506,11.460029 2.3842669,11.385589 2.9906922,10.91905 3.4958016,10.35133 4.0970124,9.8769164 4.1661228,9.8223797 4.3804752,9.6729298 4.3747948,9.6267787 4.3703924,9.5910532 4.3026188,9.6492356 4.2666872,9.6609022 4.0846727,9.7200036 3.902041,9.777465 3.7209624,9.8390942 3.3333795,9.9710053 2.9520074,10.118551 2.5658551,10.253979 2.4745247,10.286011 2.3825387,10.36718 2.2888501,10.341985 2.1469904,10.303842 2.5462958,10.20558 2.6775757,10.141967 2.881963,10.042935 3.0887546,9.9484054 3.294961,9.8528082 3.896015,9.5741643 4.5081307,9.3143232 5.1272004,9.073328 5.1882534,9.0495609 5.8892777,8.763363 6.1215457,8.7343306 c 0.011803,-0.0015 -0.00515,0.022827 -0.01254,0.031666 C 6.0209499,8.8714334 5.9374334,8.9813984 5.8363675,9.0757952 5.6466619,9.2529815 5.4481153,9.4224292 5.2388982,9.5786856 4.738403,9.9524869 4.1982553,10.276192 3.6854782,10.634756 2.3515231,11.567537 3.9291177,10.495373 2.53037,11.451955 c -0.1139055,0.0779 -0.2456022,0.143758 -0.3550442,0.22413 -0.014909,0.01094 0.0367,-0.0092 0.053696,-0.01695 0.148251,-0.06766 0.2934185,-0.141252 0.4415856,-0.209071 0.2513142,-0.115032 0.5006728,-0.234355 0.7567949,-0.33945 C 4.3861229,10.717222 5.3863599,10.398352 6.3749176,10.079687 6.3972117,10.072486 7.21293,9.8266421 6.9773877,9.9392883 6.794453,10.026774 6.6143405,10.119595 6.4299249,10.204248 5.226714,10.756564 6.0476906,10.372345 4.8167583,10.858006 c -0.2084385,0.08224 -0.4089469,0.181779 -0.6173854,0.264017 -0.2166054,0.08546 -0.4367905,0.162672 -0.6572161,0.238873 -0.090797,0.03139 -0.3696586,0.106712 -0.2788193,0.07543 0.9008302,-0.310185 1.8844162,-0.45453 2.808106,-0.653756 0.2135032,-0.04606 0.4227232,-0.109542 0.6373016,-0.150868 0.3807621,-0.07333 0.9030264,-0.148199 1.2945179,-0.201156 0.10524,-0.01424 0.2125093,-0.0069 0.3186488,-0.01257 0.021565,-0.0011 0.084061,-0.0093 0.064799,0 -0.6533864,0.314052 -1.4151366,0.397453 -2.1302088,0.481343 -1.1955013,0.140253 -1.9586573,0.159926 -3.2462502,0.201156 -0.5227523,0.01674 -1.0499114,0.0019 -1.573336,0.01257 -0.1044548,0.0022 -0.4153267,-0.02188 -0.3134366,0 0.7715766,0.165741 1.5515011,0.136846 2.331125,0.04529 0.1082969,-0.01272 0.9109844,-0.07289 1.0505224,-0.174548 0.168797,-0.122964 0.2605997,-0.538826 0.2788186,-0.641185 0.1030925,-0.5792101 0.1701267,-1.1637964 0.2389879,-1.7475453 0.024119,-0.2044594 0.026554,-0.4106937 0.03983,-0.6160405 0.026554,-0.2053476 0.053835,-0.4106118 0.079663,-0.616042 0.02463,-0.1959159 0.019916,-0.1324622 0.019916,-0.3017334 0,-0.050039 0.032311,-0.1897155 0,-0.1501188 C 5.0378993,7.0636246 4.7510296,7.6317741 4.7342982,7.6625173 4.6762998,7.7690863 3.7399194,9.4921826 3.4995275,9.9129555 2.6124672,11.465628 3.3151847,10.24232 2.9020582,10.906165 c -0.028154,0.04524 -0.054735,0.09139 -0.079663,0.138294 -0.021571,0.04059 -0.072274,0.16788 -0.059746,0.124018 C 2.8993283,10.689943 3.0960174,10.228602 3.2675844,9.7602503 3.7521911,8.4373519 3.4673769,9.0827574 4.0243792,8.0001315 4.1513837,7.7532774 4.284206,7.5089554 4.4027767,7.2583684 4.5078399,7.0363275 4.5698226,6.7971096 4.6815954,6.579465 4.7202617,6.5041734 4.5739539,6.7124649 4.5249094,6.7821257"
       id="path957" />
    <path
       style="fill:none;stroke:#ff9100;stroke-width:0.198904px;stroke-linecap:butt;stroke-linejoin:miter;stroke-opacity:0.64999998"
       d="m 2.881273,11.81128 c 0.5665097,-0.234527 1.1354464,-0.45543 1.7215484,-0.638194 0.3139379,-0.09789 0.6439823,-0.12177 0.9554335,-0.225588 0.2613552,-0.08712 0.054184,-0.03672 0.3184783,-0.05308 0.012742,-8.27e-4 0.049092,-0.01157 0.036336,-0.01211 -0.3455115,-0.0147 -0.6916616,-0.003 -1.0374726,0 -0.2720593,0.0023 -0.5448974,-0.0084 -0.8161004,0.01327 -0.5064271,0.04051 -1.0094905,0.116359 -1.5127708,0.185778 -0.2880761,0.03973 -0.2163891,0.03673 -0.5175264,0.119429 -0.048212,0.01324 -0.1194836,0.02043 -0.1144725,0.02757 0.2005589,0.285835 0.6138287,0.332959 0.9287532,0.376698 0.6617469,0.09191 0.925308,0.110343 1.5127713,0.172509 0.654952,0.0693 1.3205381,0.212319 1.9796376,0.212319 0.021358,0 -0.042828,-0.0022 -0.064075,0 -0.1776926,0.01823 -0.3545926,0.04382 -0.532371,0.06119 -1.3310327,0.130074 0.087459,-0.02685 -1.3535315,0.106159 -0.68104,0.06286 -0.5067429,0.0694 -1.2141975,0.159239 -0.1253563,0.01591 -0.2004492,0.01327 -0.3184776,0.01327 -0.052476,0 -0.2099039,0 -0.1574279,0 1.5479756,0 3.0949278,0.03981 4.6426291,0.03981"
       id="path959" />
  </g>
</svg>
