<?xml version="1.0" encoding="UTF-8" standalone="no"?>
<svg
   xmlns:dc="http://purl.org/dc/elements/1.1/"
   xmlns:cc="http://creativecommons.org/ns#"
   xmlns:rdf="http://www.w3.org/1999/02/22-rdf-syntax-ns#"
   xmlns:svg="http://www.w3.org/2000/svg"
   xmlns="http://www.w3.org/2000/svg"
   xmlns:sodipodi="http://sodipodi.sourceforge.net/DTD/sodipodi-0.dtd"
   xmlns:inkscape="http://www.inkscape.org/namespaces/inkscape"
   width="50"
   height="50"
   viewBox="0 0 13.229166 13.229167"
   version="1.1"
   id="svg8"
   inkscape:version="1.0.1 (3bc2e813f5, 2020-09-07)"
   sodipodi:docname="special.svg">
  <defs
     id="defs2" />
  <sodipodi:namedview
     id="base"
     pagecolor="#ffffff"
     bordercolor="#666666"
     borderopacity="1.0"
     inkscape:pageopacity="0.0"
     inkscape:pageshadow="2"
     inkscape:zoom="7.9426713"
     inkscape:cx="28.130504"
     inkscape:cy="24.419934"
     inkscape:document-units="mm"
     inkscape:current-layer="layer1"
     inkscape:document-rotation="0"
     showgrid="false"
     units="px"
     inkscape:window-width="1600"
     inkscape:window-height="836"
     inkscape:window-x="0"
     inkscape:window-y="27"
     inkscape:window-maximized="1"
     inkscape:snap-global="false" />
  <metadata
     id="metadata5">
    <rdf:RDF>
      <cc:Work
         rdf:about="">
        <dc:format>image/svg+xml</dc:format>
        <dc:type
           rdf:resource="http://purl.org/dc/dcmitype/StillImage" />
        <dc:title />
      </cc:Work>
    </rdf:RDF>
  </metadata>
  <g
     inkscape:label="레이어 1"
     inkscape:groupmode="layer"
     id="layer1">
    <path
       style="fill:none;stroke:#000000;stroke-width:0.199095px;stroke-linecap:butt;stroke-linejoin:miter;stroke-opacity:1"
       d="M 3.5976252,11.172782 C 3.12776,11.069111 2.6547181,10.980763 2.1825124,10.888625 2.0695897,10.866596 1.9564599,10.845575 1.8438052,10.822216 1.6575901,10.783593 1.4715845,10.743926 1.2859349,10.702672 c -0.33901152,-0.07534 0.00861,-0.01943 -0.29711722,-0.03985 -0.0318834,-0.0021 -0.12269616,-0.01325 -0.0927241,-0.02434 0.15809242,-0.05844 0.54841882,0.08605 0.71349002,0.102152 0.2188386,0.02135 0.4383716,0.03487 0.6574898,0.05313 0.052947,0.0044 0.1074176,-0.01102 0.1593917,0 0.095875,0.02034 0.1840636,0.06839 0.2789348,0.09298 0.093475,0.02424 0.3144232,0.02011 0.3169734,0.01328 C 3.0544411,10.814091 2.5314194,10.009422 2.5080863,9.9741632 2.2446534,9.5760861 1.9469509,9.2195568 1.6513562,8.8451394 1.6170624,8.8017007 1.5897674,8.7525214 1.5517367,8.7123139 1.5099438,8.6681281 1.4585323,8.6341166 1.4133006,8.5934576 c -0.00531,-0.00474 -0.016698,-0.011122 -0.012852,-0.017134 0.00372,-0.00579 0.014049,0.00248 0.019625,0.00655 0.093218,0.067821 0.1880064,0.1339218 0.2759276,0.2084786 0.3616056,0.3066328 0.2625721,0.2524795 0.5777939,0.6242793 0.077041,0.090868 0.1593918,0.1771018 0.2390876,0.2656522 0.1062612,0.1283986 0.2124186,0.2568835 0.3187834,0.3851963 0.2066155,0.249249 -0.022494,-0.0233 0.2789348,0.3055 0.059235,0.06461 0.081083,0.148911 0.077119,0.09037 -0.00803,-0.118653 -0.032038,-0.236009 -0.058651,-0.351915 C 2.9327715,9.2555198 2.718304,8.8366243 2.3719582,7.8656711 2.3091593,7.68962 2.2589333,7.5091322 2.1926426,7.334366 2.1063057,7.1262714 2.0199687,6.9181767 1.9336316,6.710082 1.920349,6.6480962 1.9145201,6.58403 1.8937836,6.5241246 1.892546,6.5205493 1.7961337,6.3884617 1.8140881,6.3267026 1.8450246,6.2202845 1.996482,6.4606427 2.0575339,6.5531337 2.1638862,6.7142534 2.2397845,6.8940168 2.3165448,7.071156 c 0.066336,0.1530828 0.4541115,1.1903532 0.4980989,1.3548281 0.1194834,0.4467647 0.2019588,0.902628 0.2988592,1.354828 0.2221516,1.0367059 0.01473,0.090116 0.09962,0.5711529 0.031666,0.17944 0.019924,-0.041 0.019924,0.224942 0,0.0066 -0.00237,0.02608 0,0.01989 C 3.4263326,10.093003 3.448321,9.5909737 3.5403359,9.0611924 3.5765929,8.852442 3.6250479,8.6459011 3.6598797,8.4369084 3.7142837,8.1104908 3.7502577,7.7812528 3.799347,7.453994 3.805997,7.409719 3.815091,7.365743 3.819271,7.3211681 c 0.00248,-0.026449 -0.026186,-0.084165 0,-0.079696 0.033236,0.00567 0.043597,0.054979 0.04959,0.088158 0.029465,0.1631323 0.053488,0.3284409 0.055597,0.4941996 0.00636,0.5002948 -0.1015199,1.361274 -0.1793151,1.8064371 -0.018438,0.1055121 -0.07221,0.2019566 -0.099619,0.3055013 -0.045348,0.1713109 -0.091906,0.3429769 -0.1195438,0.5180219 -0.00552,0.03499 0.00383,0.07105 0,0.106262 -0.00413,0.03803 -0.056847,0.109279 -0.018792,0.113222 0.027531,0.0028 0.053421,-0.01978 0.073267,-0.03908 0.092559,-0.08998 0.1812491,-0.184573 0.261117,-0.285985 0.2494061,-0.31668 0.4748374,-0.6596784 0.7172616,-0.9829106 0.010201,-0.013604 0.3169988,-0.485774 0.4153254,-0.5404833 0.070953,-0.039475 0.075027,0.1543276 0.064634,0.2348555 -0.032644,0.252947 -0.097757,0.5021738 -0.1793144,0.7438274 -0.06664,0.197451 -0.3880541,0.689852 -0.4980997,0.889935 -0.018225,0.03314 -0.11733,0.16957 -0.091966,0.203252 0.1883586,0.250131 1.0490973,-0.27338 1.3041965,-0.394857 0.029971,-0.01426 0.1793257,-0.08072 0.2191632,-0.09298 0.052344,-0.01611 0.1891983,-0.08579 0.1593902,-0.03985 -0.051313,0.07909 -0.1514851,0.113769 -0.2353239,0.156884 -0.4604444,0.236784 -0.972941,0.477533 -1.467162,0.660576 -0.2328999,0.08626 -0.2305897,0.07167 -0.3984786,0.119546 -0.028827,0.0083 -0.1054555,-0.01235 -0.089024,0.01272 0.095211,0.145275 0.1324562,0.165111 0.3523832,0.217474 0.2318941,0.05521 0.5092955,0.07921 0.7571101,0.09298 0.3320952,0.01845 0.6636077,0.01328 0.9961973,0.01328"
       id="path1712" />
    <path
       style="fill:none;stroke:#000000;stroke-width:0.199095px;stroke-linecap:butt;stroke-linejoin:miter;stroke-opacity:1"
       d="m 3.4399363,10.899977 c -0.061428,-0.03613 -0.1205622,-0.07648 -0.184283,-0.108402 -0.2754009,-0.137943 -0.5627884,-0.263945 -0.84309,-0.392416 -0.065019,-0.0298 -0.129528,-0.06071 -0.1947622,-0.09003 -0.018062,-0.0082 -0.067857,-0.03491 -0.056361,-0.01879 0.2011798,0.28213 0.662886,0.397555 0.9558999,0.544063 0.3641151,0.182057 0.4820133,0.280596 0.8766538,0.518021 0.2025685,0.121872 0.4007355,0.240592 0.5977182,0.371915 0.011675,0.0078 0.200829,0.136909 0.1977839,0.119058 C 4.7741324,11.753319 4.6969734,11.685443 4.6431189,11.611627 4.4886261,11.399869 4.3246411,11.195203 4.1649437,10.987342 3.9062379,10.650615 3.647366,10.314013 3.3879101,9.9778623 3.1493171,9.6687435 2.8986468,9.37604 2.6507236,9.0746447 2.5782389,8.9865258 2.5409467,8.8501043 2.4319789,8.7961271 c -0.019275,-0.00955 0.019529,0.038332 0.028857,0.057716 0.042996,0.089334 0.086621,0.1783792 0.1281114,0.2684229 0.095559,0.2073833 0.1565646,0.4061056 0.2590113,0.6110013 0.014167,0.028327 0.05791,0.1102892 0.035084,0.088319 C 2.7772952,9.719821 2.8246436,9.5334463 2.78148,9.393174 2.6609961,9.0016244 2.4952663,8.6253389 2.3630772,8.2375847 2.361941,8.2342738 2.203761,7.7460668 2.2236098,7.7445679 c 0.026606,-0.00204 0.052278,0.018293 0.070628,0.037669 0.080187,0.084651 0.1557488,0.1744431 0.221508,0.2707309 0.1372469,0.2009643 0.2482912,0.4475397 0.3586306,0.6641316 0.045439,0.089194 0.3586314,0.6220414 0.3586314,0.7808064 0,0.025944 -0.0074,-0.05297 0,-0.077841 C 3.2863068,9.2409132 3.3698502,9.0707911 3.412323,8.8887645 3.5162133,8.4435199 3.5820095,7.4285239 3.6115629,7.0823265 c 0.043783,-0.5128879 0.039847,-0.335134 0.039847,-0.6375652 0,-0.11654 -0.00677,-0.1851992 0,-0.1730373 0.1588646,0.2852853 0.079563,1.1221696 0.086507,1.3953071 0.059962,2.3585279 0.039847,-1.1463291 0.039847,2.07209 0,0.2922169 0,0.5844339 0,0.8766529 0,0.07942 0,0.158831 0,0.238247 0,0.03077 -0.014283,0.119574 0,0.09232 C 4.1127263,10.307065 3.8815239,10.683815 4.170946,10.02779 4.3624386,9.5937399 4.3851406,9.6262835 4.5893496,9.2308318 4.6915566,9.0329074 4.788074,8.8320943 4.8882088,8.6331135 5.0390533,8.3333653 4.8714608,8.6179435 5.0014453,8.4426764 5.0168228,8.4219378 5.0489053,8.3515939 5.0412926,8.3762627 4.9133577,8.7908594 4.5528269,9.2675499 4.3454138,9.6065482 4.2857693,9.7040314 4.2306682,9.804472 4.1660978,9.8987649 4.0910502,10.008358 4.0082271,10.112445 3.927011,10.217549 c -0.090322,0.116887 -0.1940723,0.234253 -0.2766477,0.355834 -0.042101,0.06199 0.1420723,-0.04919 0.2088071,-0.08327 0.095373,-0.0487 0.1898322,-0.09999 0.2789348,-0.159393 0.2278434,-0.151893 0.4168539,-0.3607018 0.6176419,-0.5445829 0.046702,-0.042766 0.2570551,-0.2215888 0.2664168,-0.216422 0.065449,0.03612 0.034448,0.1496489 0.021332,0.2232426 -0.082474,0.4627633 -0.4442273,0.8067893 -0.6774141,1.1954383 -0.025036,0.04172 -0.1880073,0.201993 -0.1751854,0.231529 0.033033,0.07609 0.1636541,-0.03122 0.2416471,-0.05949 0.102497,-0.03714 0.2041125,-0.0789 0.2988593,-0.132826 0.1782596,-0.101448 0.3473644,-0.218292 0.5180225,-0.332064 0.090716,-0.06048 0.2176972,-0.170895 0.3187833,-0.225806 0.2021038,-0.109784 0.3931704,-0.196764 0.5977182,-0.292219"
       id="path1716" />
    <path
       style="fill:none;stroke:#000000;stroke-width:0.199095px;stroke-linecap:butt;stroke-linejoin:miter;stroke-opacity:1"
       d="M 7.9842761,10.80127 C 7.7478668,10.614048 7.4713727,10.50042 7.2177691,10.341296 7.0636915,10.244621 6.9184404,10.138743 6.7595182,10.049079 c -0.075301,-0.04248 -0.036319,-0.01342 -0.0939,-0.03792 -0.00483,-0.002 -0.017279,-0.011927 -0.013107,-0.0087 0.1984983,0.151616 0.4431051,0.236273 0.6691968,0.337926 0.3484455,0.156666 0.8145641,0.430374 1.198625,0.512705 C 8.616245,10.873643 8.475756,10.66005 8.43134,10.572591 8.3512263,10.414803 8.2490594,10.269156 8.1524058,10.120953 8.0497633,9.9635684 7.9416961,9.8097667 7.8336221,9.6560612 7.5534829,9.2576403 7.2633443,8.8682519 6.996818,8.4606247 6.9161651,8.3372738 6.8393036,8.2114547 6.7577305,8.0887111 6.7337449,8.0526197 6.6462611,7.9571663 6.6796991,7.9847306 6.9631999,8.2184302 7.171969,8.5682314 7.3966467,8.852306 7.7269161,9.2698871 8.0732739,9.6747794 8.392844,10.100872 8.8997005,10.77668 8.0054563,9.6623235 8.6917035,10.5392 c 0.027789,0.0355 0.069838,0.05782 0.098919,0.09228 0.018074,0.02142 0.053072,0.09509 0.050582,0.06718 C 8.8230553,10.495337 8.7737674,10.295997 8.7426621,10.094253 8.7010643,9.8244328 8.6585972,9.5546974 8.6231183,9.2840087 8.5988131,9.0985736 8.5953893,8.910394 8.5633485,8.7261378 8.5420908,8.6039028 8.4943006,8.4877517 8.4637302,8.3675071 8.4340071,8.2505899 8.36105,7.978166 8.3441854,7.8096374 c -0.007,-0.070252 -0.018383,-0.2815177 -0.019294,-0.2109227 -0.00293,0.2271432 0.046744,0.4521344 0.057904,0.6790218 0.013838,0.2813935 0,0.5680583 0,0.8500892 0,0.1505367 0,0.3010721 0,0.4516092 0,0.034525 -0.012326,0.1358289 0,0.1035787 0.2098891,-0.5492629 0.380192,-1.1360934 0.5072625,-1.7095379 0.036849,-0.1662974 0.040438,-0.3389939 0.079695,-0.5047396 0.072434,-0.3058289 0.1858274,-0.5982896 0.2590102,-0.9032189 0.00933,-0.038886 0.017623,-0.2207125 0.021769,-0.1678299 0.018195,0.231979 0.09495,0.4613198 0.079696,0.6935111 C 9.2534979,8.2592058 9.2022201,8.0384798 8.991521,8.8046572 8.912014,9.0937758 8.8450884,9.3903834 8.7723578,9.6813103 c -0.015373,0.061504 -0.029392,0.1234335 -0.039844,0.1859575 -0.00795,0.047524 -0.028639,0.1832932 0,0.1445462 C 8.873888,9.8205421 9.0774868,9.353455 9.1548926,9.2154507 9.369595,8.8326669 9.6269572,8.4743093 9.8323067,8.0864273 9.9105968,7.9385462 9.974363,7.78332 10.051471,7.6348181 c 0.03966,-0.076383 0.123873,-0.38237 0.241669,-0.3589992 0.07208,0.014301 0.05319,0.1417857 0.04829,0.2151115 -0.0098,0.1471354 -0.0089,0.29991 -0.05977,0.4383271 -0.162821,0.4432371 -0.4680166,1.034818 -0.75711,1.4478065 -0.1088603,0.1555151 -0.2304648,0.309832 -0.3383055,0.4644918 -0.049807,0.071424 -0.046692,0.10897 -0.038347,0.1106596 0.2197478,0.04449 0.9189791,-0.4141505 1.1624281,-0.5223505 0.06507,-0.028914 0.203547,-0.1320647 0.267458,-0.092417 0.101303,0.062843 -0.09675,0.2371972 -0.308644,0.4203101 -0.13171,0.1138233 -0.3228525,0.1740004 -0.4781742,0.2390876 -0.1994652,0.083589 -0.3935383,0.1810696 -0.597718,0.2523706 -0.1670393,0.05833 -0.3655844,0.09911 -0.5290607,0.172116 -0.078789,0.03519 0.1732375,-0.0052 0.2587949,0.0061 0.1214223,0.0159 0.2370098,0.06538 0.3586308,0.07969 0.1055328,0.01241 0.2125872,-0.0038 0.318783,0 0.1462873,0.0051 0.2920942,0.02007 0.4383272,0.02657 0.145359,0.0065 0.292811,0.01328 0.438326,0.01328 0.03157,0 0.09109,-0.03136 0.09472,0 0.0069,0.05895 -0.7099415,0.328514 -0.8257686,0.351226 -0.052042,0.0102 -0.1581171,-0.0058 -0.2191631,0 -0.050702,0.0049 -0.3041871,0.0206 -0.3190268,0.0479 -0.044562,0.08198 0.547395,0.300811 0.6875241,0.348209 0.037651,0.01273 0.1529094,0.04278 0.1156974,0.02881 C 9.3571195,11.077754 8.6733172,10.909948 7.984289,10.801298 Z"
       id="path1720" />
    <path
       style="fill:none;stroke:#000000;stroke-width:0.199095px;stroke-linecap:butt;stroke-linejoin:miter;stroke-opacity:1"
       d="M 8.6888387,10.715944 C 6.9041318,9.472358 7.9520977,10.287114 6.8420293,9.3003873 6.738647,9.2084916 6.6304488,9.122143 6.5232457,9.0347352 c -0.011972,-0.00976 -0.025586,-0.034093 -0.038555,-0.025703 -0.012393,0.00801 0.00568,0.029445 0.012724,0.042418 0.062629,0.1152896 0.1696367,0.2798507 0.2484923,0.3809468 0.1642215,0.2105419 0.3474453,0.4055743 0.5180224,0.610999 0.2768723,0.333439 0.5537193,0.660682 0.8567294,0.969633 0.043645,0.0445 0.3855193,0.458669 0.4518441,0.471895 0.013221,0.0027 0.00226,-0.02714 0,-0.04043 -0.021874,-0.128892 -0.045126,-0.2576 -0.072276,-0.385482 C 8.201376,9.6513748 8.5881903,11.528852 8.2013692,9.9299898 8.0919249,9.4776219 8.0213036,9.0166763 7.922434,8.5618804 7.8991672,8.4548486 7.8601208,8.3512406 7.8427385,8.2430967 7.8307511,8.1684955 7.8288323,8.0926127 7.822813,8.0172921 c -6.374e-4,-0.00787 -0.00354,-0.030724 0,-0.023666 0.1653755,0.329922 0.1121012,0.2597784 0.2406127,0.6636748 C 8.222211,9.1563422 8.2108087,9.050251 8.3224365,9.5073903 8.4523718,10.0395 8.2174561,9.247654 8.4818285,10.078542 c 0.014666,0.04609 0.019926,0.192135 0.019926,0.143757 0,-0.211651 0.011551,-0.4236169 0,-0.6349527 -0.076409,-1.3983224 -0.088355,-0.2545099 -0.1195446,-1.5540684 -0.02426,-1.010661 0.028707,-1.5888342 0.09962,-2.6963729 0.00881,-0.1376133 0.031589,-0.274114 0.039844,-0.4117615 0.00211,-0.035598 -0.00188,-0.4342558 0,-0.4364859 0.025268,-0.030309 0.06804,0.047491 0.083708,0.083705 0.05761,0.1331578 0.1011925,0.2729882 0.1319721,0.4147732 0.053276,0.2454079 0.091699,0.4942516 0.1195441,0.7438271 0.1114014,0.9984776 0.039852,2.0005681 0.039852,3.0018735 0,0.2213778 0,0.4427547 0,0.6641316 0,0.035827 -0.0095,0.2171828 0,0.2244095 0.0142,0.010808 0.1420622,-0.2132362 0.1538257,-0.2325933 0.1456591,-0.2396858 0.2894843,-0.4812993 0.4184036,-0.7305438 0.015494,-0.029949 0.026563,-0.061989 0.039844,-0.092979 0.026525,-0.039791 0.056196,-0.077649 0.079576,-0.1193642 0.00474,-0.00851 -0.00331,-0.038377 0,-0.029227 0.024252,0.066437 0.066986,0.129449 0.070621,0.2000816 0.00685,0.1333131 -0.01824,0.2667518 -0.039852,0.3984794 -0.02496,0.1521213 -0.062231,0.3020567 -0.099618,0.4516093 -0.063554,0.2542332 -0.1808143,0.6655855 -0.2988595,0.9032195 -0.011829,0.02382 -0.038075,0.136388 -0.034313,0.139604 0.061433,0.05254 0.1621813,0.009 0.2425165,0 0.2606363,-0.02924 0.5223391,-0.157541 0.7571098,-0.265654 0.05749,-0.02648 0.212822,-0.158959 0.294451,-0.139222 0.01673,0.004 -0.01688,0.03005 -0.02657,0.04428 -0.07208,0.105855 -0.140583,0.214398 -0.218693,0.315888 -0.133284,0.173185 -0.2761801,0.338814 -0.4184024,0.50474 -0.04382,0.05113 -0.092977,0.09741 -0.1394667,0.146108 -0.05977,0.05755 -0.1253141,0.109671 -0.1793169,0.172675 -0.3384799,0.394895 0.2296498,-0.171287 -0.1545948,0.181981 -0.021928,0.02016 -0.087424,0.05535 -0.05977,0.06642 0.088009,0.03521 0.8098068,-0.52912 1.0245348,-0.52912"
       id="path1722" />
    <path
       style="fill:none;stroke:#000000;stroke-width:0.199095px;stroke-linecap:butt;stroke-linejoin:miter;stroke-opacity:1"
       d="m 12.425944,7.5689961 c -0.247626,-0.118929 -0.494377,-0.2322479 -0.7495,-0.3322974 -0.08039,-0.031522 -0.239536,-0.118924 -0.246784,-0.092411 -0.0028,0.010467 0.01489,0.01584 0.02303,0.023026 0.07767,0.068596 0.153916,0.1389259 0.234328,0.2042843 0.150521,0.1223401 0.299874,0.2466489 0.458252,0.358632 0.221345,0.1565069 0.493199,0.2666081 0.73045,0.3959458 0.0099,0.00534 -0.01603,-0.015697 -0.02379,-0.023793 C 12.767356,8.0141354 12.688113,7.920525 12.598742,7.8371482 12.450729,7.6990622 12.296812,7.5672737 12.140491,7.4386684 11.984554,7.3103797 11.817443,7.1960255 11.662318,7.0667557 11.499519,6.9310905 10.792253,6.2720294 10.705969,6.1901028 10.654559,6.1412937 10.314757,5.843328 10.30749,5.8181878 c -0.01953,-0.067552 0.107085,0.091304 0.157668,0.1401513 0.221334,0.2137399 0.453212,0.3867391 0.68774,0.5877644 0.09983,0.085573 0.182315,0.1897468 0.278935,0.2789341 4.58e-4,4.184e-4 0.193676,0.1671087 0.19701,0.1576575 0.09488,-0.2689859 -0.207201,-0.9015491 -0.296688,-1.1302352 -0.0073,-0.018671 -0.183368,-0.3672159 -0.138804,-0.3504166 0.417398,0.1573472 0.607516,0.4562418 0.874211,0.7737359 0.04833,0.057533 0.11218,0.1009379 0.159391,0.1593901 0.05159,0.063886 0.143903,0.2859511 0.212655,0.2913224 0.01156,9.03e-4 0.0024,-0.023455 0,-0.034788 -0.03415,-0.1588093 -0.0698,-0.3173433 -0.109579,-0.4748369 -0.214985,-0.8511911 -0.234461,-0.8709812 -0.378557,-1.4610928 -0.04,-0.1637836 -0.084,-0.3266511 -0.119544,-0.4914574 -0.0049,-0.02266 -0.02682,-0.08782 -0.01493,-0.06792 0.07098,0.1188008 0.159239,0.2292438 0.210775,0.3576768 0.08607,0.2145004 0.135744,0.4419002 0.199238,0.6641321 0.06091,0.2131566 0.29707,1.0870919 0.358631,1.3415444 0.05014,0.207245 0.09765,0.4151999 0.139469,0.6242833 0.01137,0.056813 0.0054,0.1165801 0.01993,0.1726748 0.01895,0.073246 0.05561,0.1408008 0.07969,0.2125215 0.0027,0.00783 8.27e-4,0.032989 0,0.024771 -0.09934,-1.0154341 -0.102623,-2.0346009 -0.175278,-3.0517642 -0.01777,-0.2487278 -0.06008,-0.4952391 -0.07969,-0.743827 -0.04328,-0.5481869 -0.03984,-0.5877721 -0.03984,-0.9696317 0,-0.1018335 0,-0.2036671 0,-0.3055005 0,-0.017285 -0.01258,-0.063712 0,-0.051859 0.0266,0.025059 0.03871,0.062998 0.04903,0.098051 0.05104,0.1732895 0.108937,0.3461617 0.13445,0.5249981 0.15298,1.7133971 0.02136,0.5584381 0.179314,1.5939149 0.05359,0.351327 0.03985,0.2644131 0.03985,0.6242833 0,0.079408 0,0.1588165 0,0.2382249 0,0.00662 -5.37e-4,0.026477 0,0.019874 0.06248,-0.7572515 0.13722,-1.5203645 0.155908,-2.2803321 0.0046,-0.1859005 0,-0.3719134 0,-0.5578702 0,-0.043745 -0.01857,-0.1708401 0,-0.1312341 0.149453,0.3186993 0.101584,1.1026713 0.08997,1.4150464 -0.02771,0.745207 -0.09795,1.4882948 -0.159392,2.2314813 -0.02516,0.3043114 -0.03984,0.5839018 -0.03984,0.8899352 0,0.05928 -0.05222,0.1497759 0,0.1778503 0.134752,0.072457 1.070634,-0.7987054 1.242867,-0.9989203 0.08637,-0.1003966 -0.161486,0.095687 0.210469,-0.1522835 0.0365,-0.024329 0.07339,-0.09791 0.10948,-0.072986 0.02283,0.015768 -0.01165,0.054847 -0.02392,0.079736 -0.07043,0.142863 -0.152465,0.2797834 -0.223575,0.4223084 -0.06323,0.1267308 -0.112239,0.2604577 -0.179315,0.3851962 -0.171749,0.3193922 -0.389097,0.6210606 -0.596259,0.9145532 -0.07714,0.1092728 0.184633,-0.1940181 0.284773,-0.2826848 0.12945,-0.1146191 0.264178,-0.2231722 0.39848,-0.3320656 0.111453,-0.090368 0.223917,-0.1795606 0.338705,-0.2656521 0.208349,-0.1562616 0.430408,-0.2937741 0.637566,-0.4516089 0.115029,-0.087641 0.221174,-0.1907584 0.338297,-0.2785249"
       id="path1726" />
    <path
       style="fill:none;stroke:#000000;stroke-width:0.199095px;stroke-linecap:butt;stroke-linejoin:miter;stroke-opacity:1"
       d="M 13.178556,7.5301251 C 13.075629,7.4005137 12.972203,7.2712979 12.869775,7.1412906 11.526856,5.4367711 12.084877,6.2447093 10.679841,3.7297594 c -0.0546,-0.097726 -0.09477,-0.2028669 -0.139467,-0.3055006 -0.0151,-0.034682 -0.02884,-0.070068 -0.03984,-0.1062608 -0.0024,-0.0079 -0.0061,-0.030368 0,-0.024773 0.148648,0.1369142 0.150309,0.3751993 0.225942,0.5626054 0.318357,0.7888234 0.619228,1.5795866 0.876655,2.3908729 0.08153,0.256946 0.154641,0.5218937 0.25901,0.7703926 0.06037,0.1437474 0.05629,0.1533701 0.119545,0.2523685 0.0052,0.00818 0.01679,0.032989 0.01748,0.023305 0.01249,-0.1723308 -0.01745,-0.4780468 0,-0.6347377 0.01308,-0.1174146 0.05732,-0.2293436 0.07969,-0.3453472 0.175085,-0.9078452 0.01105,-0.2946794 0.179316,-0.8235228 0.06405,-0.201312 0.108411,-0.4066638 0.159392,-0.6110011 0.01624,-0.065106 0.05526,-0.1813188 0.06838,-0.1703865 0.294028,0.2451677 0.290031,0.2449778 0.389466,0.6493466 0.07379,0.3000781 0.101911,0.6097751 0.13947,0.9165016 0.01506,0.1230515 0,0.2479419 0,0.3719136 0,0.035419 0,0.070839 0,0.1062596 0,0.00825 -0.0053,0.031033 0,0.024764 0.135488,-0.1577166 0.206568,-0.4205073 0.301174,-0.5992062 0.103494,-0.1954916 0.266183,-0.4145458 0.35863,-0.6242841 0.03295,-0.074745 0.09547,-0.3042515 0.19598,-0.3396837 0.02652,-0.00935 0.0033,0.056427 0,0.084343 -0.0153,0.1285383 -0.0241,0.2588016 -0.05579,0.384309 -0.114329,0.4528482 -0.273279,0.9542609 -0.458252,1.3946751 -0.0442,0.1052572 -0.146141,0.2647628 -0.05977,0.2329763 0.06192,-0.022785 0.09247,-0.094157 0.139961,-0.1399597 0.136308,-0.1314648 0.279753,-0.2556802 0.411402,-0.3918113 0.311652,-0.3222637 0.616164,-0.6624878 0.916502,-0.9961974 0.157401,-0.1748901 0.317084,-0.3466994 0.478175,-0.5180223 0.03422,-0.036399 0.103068,-0.1665699 0.09285,-0.1176627 -0.06969,0.3336456 -0.504312,0.9167356 -0.726599,1.1637204 -0.187519,0.2083537 -0.388675,0.4041001 -0.577795,0.6110008 -0.521895,0.5709616 0.182252,-0.1378491 -0.478175,0.544588 -0.02646,0.027337 -0.356704,0.3566124 -0.351391,0.3776797 0.0061,0.024553 0.04803,-0.018346 0.06795,-0.033975 0.05209,-0.040868 0.09866,-0.088362 0.146414,-0.1342153 0.206233,-0.1980037 0.395544,-0.3951914 0.632647,-0.5530828"
       id="path1728" />
    <path
       style="fill:none;stroke:#000000;stroke-width:0.199095px;stroke-linecap:butt;stroke-linejoin:miter;stroke-opacity:1"
       d="m 12.556914,13.880989 c -0.345257,-0.258757 -0.746356,-0.416806 -1.127536,-0.60932 -0.983261,-0.496594 0.519753,0.213885 -0.617642,-0.332066 -0.118345,-0.0568 -0.232617,-0.10195 -0.342447,-0.175167 -0.05997,-0.03998 0.126814,0.06855 0.190137,0.102966 0.323022,0.175596 0.65093,0.333506 0.976273,0.50474 0.105621,0.05559 0.225182,0.139823 0.337418,0.171815 0.01656,0.0048 0.03477,-0.0035 0.05163,0 0.02546,0.0052 0.07828,0.05139 0.07359,0.02583 -0.02996,-0.163113 -0.376962,-0.454763 -0.509789,-0.565452 -0.06372,-0.0531 -0.126081,-0.107819 -0.18801,-0.162995 -0.01376,-0.01226 -0.05353,-0.05056 -0.0391,-0.0391 0.150101,0.119198 0.292533,0.254342 0.432749,0.38501 0.08659,0.08069 0.114752,0.124183 0.111811,0.111813 -0.04557,-0.191673 -0.208493,-0.597071 -0.262868,-0.761258 -0.07726,-0.233306 -0.14196,-0.470651 -0.219163,-0.703979 -0.03958,-0.119631 -0.07969,-0.239087 -0.119543,-0.358631 -0.02262,-0.06786 -0.05556,-0.131908 -0.07969,-0.199239 -0.007,-0.01933 -0.01497,-0.07567 0,-0.06161 0.258511,0.24296 0.471674,0.762398 0.633443,1.085933 0.03198,0.06398 0.05347,0.13269 0.07969,0.19924 0.0073,0.01859 0.01678,0.07665 0.01917,0.05681 0.100332,-0.832921 -0.0083,-1.709812 -0.123703,-2.533979 -0.03101,-0.2215655 -0.03985,-0.4265492 -0.03985,-0.6508497 0,-0.049504 0,-0.099015 0,-0.1485221 0,-0.013045 -0.0039,-0.051583 0,-0.039145 0.126325,0.3985511 0.197904,0.8009397 0.275732,1.2102588 0.0584,0.307133 0.149633,0.607827 0.199241,0.916502 0.03538,0.220141 0.04567,0.443777 0.07969,0.66413 0.02925,0.189436 0.09637,0.371101 0.139469,0.557872 0.04679,0.202773 0.03984,0.147827 0.03984,0.3055 0,0.0262 -0.01537,0.09983 0,0.07861 0.23314,-0.321907 0.362277,-0.997988 0.453797,-1.372206 0.04415,-0.180531 0.07776,-0.363496 0.119545,-0.544588 0.05119,-0.221833 0.108199,-0.442298 0.159391,-0.664132 0.01523,-0.066 0.02657,-0.132825 0.03984,-0.199238 0.01992,-0.07084 0.04262,-0.140959 0.05977,-0.2125211 0.0097,-0.04063 -0.0028,-0.1670212 0,-0.1253294 0.04544,0.7088135 -0.159849,1.2493935 -0.37953,1.9084385 -0.02132,0.06398 -0.06912,0.119352 -0.07969,0.185957 -0.0083,0.05205 0.0045,0.105608 0,0.158121 -0.0023,0.02744 -0.04946,0.01844 -0.01538,0.06162 0.05774,0.07318 0.193389,-0.0063 0.274854,-0.05164 0.104539,-0.05815 0.189526,-0.14633 0.278935,-0.225804 0.268833,-0.238963 0.626936,-0.545469 0.876652,-0.836807 0.05763,-0.06723 0.101765,-0.145288 0.159392,-0.212522 0.02251,-0.02625 0.05622,-0.04101 0.07969,-0.06642 0.111644,-0.120834 0.05193,-0.06467 0.09696,-0.141226 0.0052,-0.0088 0.01071,-0.03644 0.01465,-0.02699 0.01006,0.02408 0.02976,0.04731 0.02749,0.0733 -0.05487,0.63063 -0.846347,1.490416 -1.274292,2.001572 -0.07613,0.09093 -0.372495,0.472158 -0.398288,0.567444 -0.0044,0.01635 0.08909,0.02286 0.176872,0.01407 0.366245,-0.03668 0.740382,-0.07395 1.095818,-0.172675 0.167171,-0.04643 0.263393,-0.05072 0.438327,-0.07969 0.190669,-0.03159 -0.174371,0.008 0.0983,-0.02298 0.0098,-0.0011 0.0395,0 0.02963,0 -0.634145,0 -1.267968,-0.01248 -1.901871,-0.02656 -0.125549,-0.0028 -0.252176,0 -0.377786,0 -0.03018,0 -0.100681,-0.02842 -0.09054,0 0.05012,0.14035 0.801065,0.562885 0.949822,0.662056"
       id="path1732" />
    <path
       style="fill:none;stroke:#000000;stroke-width:0.199095px;stroke-linecap:butt;stroke-linejoin:miter;stroke-opacity:1"
       d="m 12.448624,13.306476 c -0.07801,-0.156007 -0.168665,-0.306302 -0.234009,-0.468021 -0.316577,-0.783488 -0.61112,-1.575715 -0.911002,-2.365743 -0.0835,-0.219972 -0.157748,-0.443354 -0.239087,-0.6641316 -0.0905,-0.245635 -0.0045,0.054867 -0.03984,-0.1859557 -0.0021,-0.014237 -0.02703,-0.050751 -0.01931,-0.038613 0.239788,0.3773881 0.327402,0.8239627 0.506197,1.2292327 0.559809,1.2689 -0.214034,-0.719864 0.537947,1.235285 0.08393,0.218215 0.132388,0.447193 0.219163,0.664131 0.01405,0.03513 0.03125,0.06943 0.03984,0.106262 0.0049,0.02093 -0.01659,0.07813 0,0.06447 0.0241,-0.01985 0.02307,-0.05832 0.02962,-0.08885 0.02812,-0.131218 0.05091,-0.263531 0.07419,-0.395692 0.0413,-0.23441 0.08259,-0.468847 0.119544,-0.70398 0.06814,-0.433631 0.132158,-0.8679 0.19924,-1.301697 0.05919,-0.382834 0.159392,-0.8243883 0.159392,-1.2225564 0,-0.077439 0.05603,0.1451853 0.07129,0.2211057 0.06865,0.3416597 0.08151,0.6592197 0.05977,1.0094797 -0.02808,0.452494 -0.06647,0.904581 -0.119543,1.354828 -0.102553,0.870151 -0.08759,0.176201 -0.139467,0.81024 -0.02158,0.263793 -0.01993,0.332313 -0.01993,0.531306 0,0.05023 -0.0423,0.17776 0,0.150674 0.123177,-0.07889 0.502493,-0.672558 0.608331,-0.801406 0.663259,-0.807447 -0.340423,0.519576 0.39848,-0.531305 0.0815,-0.115908 0.172438,-0.216542 0.2331,-0.346882 0.0057,-0.01206 -0.01984,0.0179 -0.02824,0.02824 -0.06116,0.07525 -0.114755,0.156818 -0.180253,0.228319 -0.183911,0.200767 -0.415289,0.35148 -0.617643,0.531306 -0.09382,0.08338 -0.166704,0.180674 -0.25782,0.264381 -0.09049,0.08313 -0.243745,0.152046 -0.225055,0.295064 0.0074,0.05696 0.06394,0.02391 0.09456,0.03298 0.06858,0.02031 0.129846,0.06234 0.199239,0.07969 0.178838,0.04471 0.374301,0.04067 0.55787,0.05313 0.03132,0.0021 0.135414,-0.02148 0.14695,0.02472 0.01308,0.0524 -0.07441,0.149622 -0.07655,0.152344 -0.147828,0.188126 -0.334774,0.328474 -0.537947,0.45161 -0.220381,0.133564 -0.609316,0.202434 -0.08341,0.394358 0.09894,0.0361 0.230445,0.02365 0.336887,0.03984 0.154906,0.02357 0.339284,0.110292 0.48095,0.166959"
       id="path1734" />
    <path
       style="fill:none;stroke:#000000;stroke-width:0.199095px;stroke-linecap:butt;stroke-linejoin:miter;stroke-opacity:1"
       d="m 0.486373,6.1805964 c -0.4697463,-0.06565 -0.918428,-0.2151341 -1.3747746,-0.3368267 -0.2535735,-0.067619 -0.06886,-0.018444 -0.3560917,-0.066075 -0.017297,-0.00287 -0.066769,-0.020461 -0.051038,-0.012718 0.1222076,0.060142 0.2346713,0.085969 0.3659367,0.1268071 0.1701125,0.052924 0.3283657,0.1464335 0.4980989,0.1992396 0.045189,0.014058 0.094092,0.013122 0.1394671,0.026565 0.1520531,0.045054 0.2602534,0.093806 0.3867724,0.1781519 0.025228,0.016819 0.048108,0.037853 0.075685,0.050457 0.008616,0.00393 0.0327289,0.016501 0.0269598,0.00898 -0.2026508,-0.2639107 -0.4632981,-0.4824889 -0.6809105,-0.734461 -0.058497,-0.067733 -0.5064218,-0.5949191 -0.5539092,-0.6070402 -0.0022,-5.574e-4 0.010779,0.054319 0.099917,0.172495 0.083728,0.1110047 0.1594133,0.2324675 0.2524929,0.3351254 0.01809,0.019952 0.05057,0.086285 0.054505,0.059643 0.050175,-0.3396411 -0.3709859,-1.3672337 -0.4838749,-1.6783055 -0.1819477,-0.501367 0.03505,0.088301 -0.1793155,-0.5445882 -0.1335933,-0.3117162 -0.00649,0.018585 -0.039847,-0.131003 -0.00248,-0.011137 -0.022889,-0.039148 -0.015311,-0.030618 0.149252,0.1679458 0.1568755,0.2113554 0.2947108,0.4338071 0.2432831,0.3926333 0.4601147,0.8000655 0.6973376,1.1954364 0.039847,0.061986 0.079696,0.1239711 0.1195438,0.1859569 0.013283,0.030992 0.022554,0.064032 0.039848,0.092978 0.035475,0.059378 0.1119296,0.1447917 0.1162858,0.1420169 0.017991,-0.011459 0.0042,-0.043081 0,-0.063993 -0.03843,-0.191288 -0.078211,-0.3824976 -0.1276191,-0.5712477 C -0.2683608,4.3836815 -0.3415836,4.1597692 -0.4079968,3.9339649 -0.5673882,3.331819 -0.7374338,2.7323929 -0.8861712,2.1275272 -0.9625804,1.8167965 -0.9836042,1.4937944 -1.0654865,1.1844606 -1.0977305,1.0626447 -1.1468224,0.94590635 -1.1850293,0.82582802 c -0.011887,-0.0373608 -0.039473,-0.14990408 -0.019925,-0.11591935 0.2627963,0.45684563 0.3758515,0.98205163 0.5116983,1.48364033 0.1129024,0.4117614 0.2258048,0.8235228 0.338707,1.2352843 0.033206,0.1416815 0.061789,0.2845271 0.09962,0.4250443 0.085489,0.3175329 0.1803218,0.6518798 0.2789348,0.9696319 0.031748,0.1022976 0.086608,0.1991828 0.09962,0.3055004 0.00579,0.047338 0,0.1907635 0,0.1430728 0,-0.2169085 0.010651,-0.4074982 0.039848,-0.6216114 0.027942,-0.2049092 0.0199235,-0.1910934 0.0199235,-0.4117614 0,-0.1134561 -0.008159,-0.1918759 0,-0.1739169 0.15142011,0.3332849 0.0106444,0.051471 0.0684348,0.3868763 0.0445162,0.2583651 0.10233211,0.3114881 0.11954302,0.5180225 0.001852,0.02221 -0.0306047,0.4196618 0.0265995,0.3086345 C 0.47414982,5.1304786 0.5496392,4.9820464 0.61624921,4.8296497 0.82877988,4.3434024 1.0320495,3.8268854 1.1741203,3.3154299 c 0.091697,-0.3301115 -0.098122,0.1160474 0.099619,-0.3453484 0.01017,-0.023729 0.029245,-0.042874 0.039848,-0.066413 0.00393,-0.00871 -0.00503,-0.036785 0,-0.028665 0.1511083,0.2435478 0.03459,0.5994006 -0.020115,0.8501305 C 1.1968736,4.1678779 1.0557279,4.5965757 0.91491738,5.0268314 0.78325958,5.42912 0.82336438,5.3395385 0.71567773,5.5979846 0.70365203,5.6268456 0.57099627,5.862941 0.66228223,5.8449765 1.0842956,5.7619275 1.4342872,5.3824553 1.75287,5.1075989 1.7937416,5.0723369 2.0420918,4.7879248 2.0634446,4.787246 2.0703686,4.7870269 2.0313177,4.8910138 1.9758191,4.9828077 1.8411677,5.2055187 1.636595,5.4015823 1.4378724,5.5672428 1.4189343,5.5830308 1.1767599,5.7118454 1.2050123,5.7349942 c 0.00788,0.00646 0.02093,-0.00328 0.030581,0 0.085614,0.029104 0.165244,0.076904 0.2535042,0.096573 0.260514,0.058058 0.5726732,0.05313 0.8434128,0.05313"
       id="path1738" />
    <path
       style="fill:none;stroke:#000000;stroke-width:0.199095px;stroke-linecap:butt;stroke-linejoin:miter;stroke-opacity:1"
       d="M 1.0616838,6.023443 C 0.36012041,5.3965648 -0.2386589,4.689369 -0.8395125,3.9670309 -0.9828532,3.8305438 -1.0751684,3.6543945 -1.1981432,3.5021396 c -0.028228,-0.03495 -0.099666,-0.1370476 -0.098363,-0.092141 0.00578,0.1988227 0.4629444,0.7729065 0.572595,0.9152601 0.131828,0.1711451 0.2817184,0.358369 0.3983952,0.5444758 0.033907,0.054083 0.053899,0.1176515 0.095768,0.1658364 0.00422,0.00485 -2.429e-4,-0.012844 0,-0.019258 C -0.224028,4.8652595 -0.20014,4.7138877 -0.211861,4.5631811 -0.227524,4.3618015 -0.284532,4.1656449 -0.31148,3.9654628 -0.350038,3.6790326 -0.361095,3.3895361 -0.391176,3.1020919 -0.395806,3.0578949 -0.421332,2.7531003 -0.4111,2.7493767 c 0.068423,-0.0249 0.1074287,0.1006765 0.1461685,0.1623285 0.070709,0.1125288 0.1447022,0.224154 0.1992396,0.3453485 0.23929617,0.5317693 0.35174083,1.1209515 0.47817449,1.6868938 0.0536289,0.2400539 0.15915534,0.4891619 0.15915534,0.7367824 0,0.00858 -0.001182,-0.01725 0,-0.025753 0.0228865,-0.1645556 0.0539702,-0.3280267 0.0721711,-0.4931668 0.0644854,-0.5850885 0.0963465,-1.1789149 0.11954381,-1.7665895 0.004718,-0.1194506 0,-0.2390872 0,-0.3586305 0,-0.01096 0,-0.1198987 0,-0.1089377 0,0.2399167 0.0135455,0.4802158 0,0.7197497 -0.0113046,0.1999138 -0.0467405,0.3979097 -0.0597715,0.5977183 -0.0135495,0.2077592 -0.005091,0.4166126 -0.0199243,0.624284 -0.0298929,0.4185001 -0.11764268,0.8310822 -0.15939096,1.2485663 -0.0167542,0.167542 -0.0102261,0.3366417 -0.0199243,0.5047397 -0.004207,0.072919 0,0.1495185 0,0.2224801 0,0.00655 -0.002751,0.025517 0,0.019595 C 0.57573788,6.711056 0.6111002,6.5404965 0.68231533,6.3845018 0.80136904,6.1237183 0.9328734,5.87034 1.0605153,5.6150561 c 0.023279,-0.046558 0.063215,-0.1008777 0.095323,-0.1401428 0.017498,-0.0214 0.068795,-0.037418 0.055476,-0.06164 -0.013763,-0.02503 -0.44853175,-0.05527 -0.52377646,-0.060291 -0.11030776,-0.00736 -0.21399952,-0.015135 -0.19484186,0 C 0.7794738,5.57954 1.1553525,5.6227579 1.4937088,5.7065412 c 0.054362,0.013461 0.1047208,0.040981 0.1593918,0.05313 0.064883,0.014419 0.3209285,0.058095 0.4383265,0.066413 0.041004,0.00291 0.084817,0 0.1262855,0 0.00988,0 0.038122,-0.00505 0.029631,0 -0.166283,0.098839 -0.6058593,0.2607082 -0.7822261,0.2998972"
       id="path1740" />
    <path
       style="fill:none;stroke:#000000;stroke-width:0.199095px;stroke-linecap:butt;stroke-linejoin:miter;stroke-opacity:1"
       d="m 11.958592,1.7736045 c -0.469745,-0.06565 -0.918428,-0.2151342 -1.374774,-0.3368267 -0.253574,-0.067619 -0.06886,-0.018444 -0.356092,-0.066075 -0.0173,-0.00287 -0.06677,-0.020461 -0.05104,-0.012718 0.122207,0.060142 0.234671,0.085969 0.365936,0.1268071 0.170113,0.052924 0.328366,0.1464336 0.4981,0.1992397 0.04519,0.014058 0.09409,0.013122 0.139466,0.026566 0.152053,0.045054 0.260254,0.093805 0.386772,0.1781519 0.02523,0.016819 0.0481,0.037852 0.07569,0.050457 0.0086,0.00393 0.03273,0.016501 0.02696,0.00898 -0.202652,-0.2639154 -0.4633,-0.4824938 -0.680912,-0.7344658 -0.0585,-0.067733 -0.506422,-0.59491913 -0.553909,-0.60704021 -0.0022,-5.5744e-4 0.01077,0.0543188 0.09992,0.17249499 0.08373,0.11100766 0.159416,0.23247052 0.252495,0.33512832 0.01809,0.019952 0.05057,0.086285 0.0545,0.059643 0.05017,-0.33964111 -0.370986,-1.36723361 -0.483875,-1.67830545 -0.181948,-0.50136705 0.03505,0.0883011 -0.179316,-0.54458825 -0.133593,-0.3117161 -0.0065,0.018585 -0.03985,-0.1310029 -0.0025,-0.011138 -0.02289,-0.039148 -0.01531,-0.030619 0.149252,0.167946 0.156876,0.21135549 0.294711,0.43380719 0.243283,0.39263336 0.460115,0.8000655 0.697338,1.19543642 0.03984,0.0619858 0.07969,0.12397111 0.119544,0.1859568 0.01328,0.0309926 0.02255,0.0640318 0.03985,0.092978 0.03547,0.0593778 0.111929,0.14479176 0.116286,0.14201698 0.01799,-0.0114596 0.0042,-0.0430804 0,-0.0639934 C 11.352645,0.58434588 11.312868,0.39313637 11.263457,0.20438627 11.20385,-0.02331036 11.130631,-0.2472226 11.064218,-0.47302699 10.904826,-1.0751729 10.73478,-1.674599 10.586043,-2.2794646 c -0.07641,-0.3107308 -0.09743,-0.6337328 -0.179315,-0.9430667 -0.03224,-0.1218159 -0.08133,-0.2385541 -0.119543,-0.3586325 -0.01189,-0.037361 -0.03947,-0.1499041 -0.01992,-0.1159193 0.262796,0.4568456 0.375851,0.9820515 0.511699,1.4836402 0.112901,0.4117615 0.225804,0.8235229 0.338706,1.23528429 0.03321,0.1416815 0.06179,0.2845272 0.09962,0.42504443 0.08549,0.31753289 0.180322,0.65187972 0.278935,0.9696318 0.03175,0.1022976 0.08661,0.19918291 0.09962,0.3055004 0.0058,0.047338 0,0.19076352 0,0.14307283 0,-0.21690846 0.01064,-0.40749823 0.03984,-0.62161139 0.02794,-0.20490916 0.01992,-0.1910934 0.01992,-0.41176136 0,-0.11345613 -0.0082,-0.19187595 0,-0.17391706 0.15142,0.33328498 0.01065,0.0514708 0.06844,0.38687642 0.04452,0.258365 0.102331,0.31148803 0.119542,0.51802247 0.0019,0.0222103 -0.0306,0.41966187 0.0266,0.30863451 0.07617,-0.14784772 0.151664,-0.29627993 0.218274,-0.44867656 0.212531,-0.48624726 0.415801,-1.0027643 0.557871,-1.51421988 0.0917,-0.3301114 -0.09812,0.11604739 0.09962,-0.3453483 0.01018,-0.02373 0.02924,-0.042874 0.03985,-0.066413 0.0039,-0.00871 -0.005,-0.036785 0,-0.028665 0.151108,0.2435479 0.03459,0.59940069 -0.02011,0.85013059 -0.0966,0.44274389 -0.237745,0.87144175 -0.378555,1.30169745 -0.131658,0.40228866 -0.09156,0.31270702 -0.199241,0.57115316 -0.01203,0.028861 -0.144681,0.2649565 -0.05339,0.2469919 0.422013,-0.083049 0.772004,-0.46252118 1.090588,-0.73737751 0.04088,-0.0352618 0.289221,-0.31967414 0.310574,-0.32035304 0.007,-2.1905e-4 -0.03212,0.10376789 -0.08762,0.19556173 -0.134651,0.22271102 -0.339223,0.41877465 -0.537946,0.58443512 -0.01894,0.015788 -0.261113,0.1446027 -0.232861,0.1677514 0.0079,0.00646 0.02093,-0.00328 0.03058,0 0.08562,0.029104 0.165245,0.076904 0.253504,0.096573 0.260514,0.058058 0.572674,0.05313 0.843413,0.05313"
       id="path1742" />
    <path
       style="fill:none;stroke:#000000;stroke-width:0.199095px;stroke-linecap:butt;stroke-linejoin:miter;stroke-opacity:1"
       d="M 12.533903,1.6164511 C 11.83234,0.98957284 11.233561,0.28237712 10.632707,-0.43996103 c -0.143341,-0.1364872 -0.235656,-0.31263638 -0.358631,-0.46489138 -0.02823,-0.03495 -0.09967,-0.13704749 -0.09836,-0.09214 0.0058,0.1988227 0.462945,0.77290651 0.572595,0.91526003 0.131828,0.17114514 0.281718,0.35836897 0.398395,0.54447574 0.03391,0.054084 0.0539,0.11765159 0.09577,0.16583644 0.0042,0.004846 -2.43e-4,-0.0128434 0,-0.0192583 0.0057,-0.15105337 0.02961,-0.30242519 0.01788,-0.45313173 -0.01567,-0.20137941 -0.07268,-0.3975361 -0.09962,-0.59771824 -0.03855,-0.28643044 -0.04961,-0.57592703 -0.07969,-0.86337123 -0.0046,-0.044197 -0.03015,-0.3489916 -0.01992,-0.352715 0.06843,-0.0249 0.107429,0.1006763 0.146168,0.1623283 0.07071,0.1125288 0.144703,0.224154 0.19924,0.3453485 0.239296,0.53176934 0.351741,1.12095156 0.478174,1.68689386 0.05363,0.2400538 0.159156,0.48916184 0.159156,0.73678234 0,0.00859 -0.0012,-0.017249 0,-0.025753 0.02289,-0.1645558 0.05397,-0.32802686 0.07217,-0.49316695 0.06448,-0.58508839 0.09635,-1.17891482 0.119545,-1.76658935 0.0048,-0.1194506 0,-0.2390872 0,-0.3586307 0,-0.01096 0,-0.1198986 0,-0.1089376 0,0.2399166 0.01354,0.48021569 0,0.71974969 -0.0113,0.19991379 -0.04674,0.39790966 -0.05977,0.59771832 -0.01355,0.2077592 -0.0051,0.4166125 -0.01992,0.62428395 -0.02989,0.41850014 -0.117643,0.83108224 -0.159391,1.24856644 -0.01676,0.1675419 -0.01023,0.3366416 -0.01993,0.5047395 -0.0042,0.072919 0,0.1495187 0,0.2224803 0,0.00655 -0.0028,0.025517 0,0.019595 0.0714,-0.1537295 0.106758,-0.324289 0.177974,-0.4802838 0.119053,-0.2607836 0.250557,-0.5141619 0.378199,-0.7694458 0.02329,-0.046558 0.06322,-0.1008777 0.09532,-0.1401428 0.01749,-0.0214 0.06879,-0.037418 0.05547,-0.06164 -0.01376,-0.0250299 -0.448531,-0.0552698 -0.523776,-0.0602917 -0.110308,-0.007361 -0.214,-0.0151355 -0.194842,0 0.286778,0.22655777 0.662656,0.26977567 1.001013,0.35355887 0.05436,0.013461 0.104721,0.040981 0.159391,0.05313 0.06488,0.014419 0.320929,0.058095 0.438327,0.066413 0.04101,0.00291 0.08482,0 0.126286,0 0.0099,0 0.03812,-0.00505 0.02963,0 -0.16628,0.09884 -0.605856,0.2607092 -0.782224,0.2998982"
       id="path1744" />
    <path
       style="fill:none;stroke:#000000;stroke-width:0.199095px;stroke-linecap:butt;stroke-linejoin:miter;stroke-opacity:1"
       d="m -0.7400811,13.229656 c -0.2476265,-0.118929 -0.4943773,-0.232248 -0.7495002,-0.332297 -0.080387,-0.03152 -0.2395358,-0.118924 -0.2467845,-0.09241 -0.00286,0.01047 0.014892,0.01584 0.023026,0.02303 0.077666,0.0686 0.1539153,0.138926 0.234328,0.204285 0.15052,0.12234 0.2998745,0.246649 0.4582513,0.358632 0.2213461,0.156507 0.4931997,0.266607 0.7304502,0.395946 0.00985,0.0053 -0.016036,-0.0157 -0.023793,-0.02379 -0.084565,-0.08825 -0.1638091,-0.181857 -0.2531801,-0.265234 -0.1480127,-0.138086 -0.3019295,-0.269874 -0.4582505,-0.39848 -0.1559371,-0.128288 -0.3230487,-0.242642 -0.4781733,-0.371912 -0.1627984,-0.135665 -0.8700647,-0.794726 -0.9563489,-0.876653 -0.051409,-0.04881 -0.3912118,-0.346775 -0.3984793,-0.371915 -0.019527,-0.06755 0.1070859,0.09131 0.1576687,0.140151 0.221334,0.213741 0.4532111,0.386739 0.68774,0.587764 0.099835,0.08557 0.182314,0.189748 0.2789345,0.278935 4.575e-4,4.18e-4 0.1936758,0.167109 0.19701,0.157658 0.094878,-0.268987 -0.207201,-0.90155 -0.296687,-1.130235 -0.0073,-0.01867 -0.1833691,-0.367217 -0.1388047,-0.350417 0.4173982,0.157346 0.6075155,0.456241 0.8742108,0.773735 0.048332,0.05754 0.1121803,0.100938 0.1593919,0.159391 0.051598,0.06389 0.143902,0.28595 0.2126533,0.291323 0.011558,9.02e-4 0.00241,-0.02345 0,-0.03479 -0.034148,-0.158809 -0.0698,-0.317344 -0.1095781,-0.474836 -0.2149846,-0.851192 -0.2344611,-0.870982 -0.3785573,-1.461094 -0.039995,-0.163784 -0.083998,-0.326651 -0.1195434,-0.4914574 -0.0049,-0.022662 -0.026826,-0.087824 -0.014936,-0.067922 0.070974,0.1188003 0.1592391,0.2292434 0.2107744,0.3576774 0.086072,0.2145 0.1357444,0.4419 0.1992389,0.664131 0.060906,0.213157 0.2970693,1.087092 0.3586307,1.341545 0.050138,0.207246 0.097652,0.415201 0.1394691,0.624283 0.011362,0.05681 0.00542,0.11658 0.019926,0.172675 0.018947,0.07325 0.055609,0.140801 0.079696,0.212522 0.00263,0.0078 8.277e-4,0.03298 0,0.02477 -0.099338,-1.015433 -0.1026229,-2.0346 -0.1752775,-3.051764 -0.017768,-0.2487313 -0.060072,-0.4952427 -0.079698,-0.7438305 -0.043275,-0.5481868 -0.039844,-0.5877719 -0.039844,-0.9696318 0,-0.1018337 0,-0.2036665 0,-0.3055003 0,-0.017284 -0.012581,-0.063713 0,-0.051861 0.026593,0.025057 0.038701,0.062998 0.049024,0.098051 0.051033,0.1732896 0.108937,0.3461622 0.13445,0.5249981 0.1529808,1.7133975 0.021363,0.5584383 0.1793147,1.5939145 0.053592,0.351327 0.039852,0.264413 0.039852,0.624284 0,0.07941 0,0.158816 0,0.238224 0,0.0066 -5.373e-4,0.02648 0,0.01988 0.062479,-0.757251 0.1372206,-1.5203632 0.1559086,-2.2803316 0.00459,-0.1859003 0,-0.3719135 0,-0.5578703 0,-0.043742 -0.018571,-0.1708402 0,-0.1312339 0.1494523,0.3186995 0.1015838,1.1026715 0.089966,1.4150466 -0.027714,0.7452072 -0.097947,1.4882942 -0.1593918,2.2314812 -0.025163,0.304311 -0.039844,0.583902 -0.039844,0.889935 0,0.05928 -0.052215,0.149775 0,0.177849 0.1347518,0.07246 1.0706332,-0.798704 1.2428662,-0.998919 0.086365,-0.100398 -0.16148604,0.09569 0.2104697,-0.152285 0.036495,-0.02433 0.07339,-0.09791 0.1094796,-0.07298 0.02283,0.01577 -0.011649,0.05485 -0.023922,0.07974 -0.070425,0.142862 -0.1524652,0.279783 -0.2235757,0.422308 -0.063231,0.126731 -0.1122382,0.260457 -0.17931462,0.385196 -0.1717484,0.319391 -0.3890966,0.621061 -0.59625839,0.914553 -0.0771303,0.109273 0.18463318,-0.194018 0.28477297,-0.282685 0.12944981,-0.114619 0.26417752,-0.223173 0.39847934,-0.332066 0.1114534,-0.09037 0.2239173,-0.17956 0.3387065,-0.265651 0.2083477,-0.156262 0.4304063,-0.293774 0.6375652,-0.45161 0.1150284,-0.08764 0.2211737,-0.190758 0.3382964,-0.278525"
       id="path1746" />
    <path
       style="fill:none;stroke:#000000;stroke-width:0.199095px;stroke-linecap:butt;stroke-linejoin:miter;stroke-opacity:1"
       d="m 0.0125306,13.190785 c -0.102927,-0.129612 -0.2063537,-0.258827 -0.3087802,-0.388835 -1.3429201,-1.704519 -0.7848985,-0.896581 -2.1899346,-3.4115309 -0.054597,-0.097726 -0.094772,-0.2028669 -0.1394677,-0.3055 -0.015102,-0.034682 -0.028843,-0.070072 -0.039844,-0.1062613 -0.00241,-0.0079 -0.0061,-0.03037 0,-0.024771 0.1486479,0.1369144 0.1503086,0.3751996 0.2259422,0.5626056 0.3183572,0.7888226 0.619228,1.5795856 0.8766549,2.3908726 0.081531,0.256945 0.1546408,0.521893 0.2590103,0.770392 0.060371,0.143747 0.056285,0.15337 0.1195448,0.252368 0.00519,0.0082 0.01678,0.03299 0.017481,0.0233 0.012483,-0.172331 -0.017458,-0.478046 0,-0.634738 0.013078,-0.117414 0.057324,-0.229343 0.079696,-0.345346 0.1750849,-0.907846 0.011047,-0.29468 0.1793161,-0.823523 0.064051,-0.201312 0.1084104,-0.406665 0.1593919,-0.611001 0.016246,-0.06511 0.055262,-0.18132 0.068378,-0.170388 0.2940269,0.245169 0.2900306,0.244978 0.389466,0.649347 0.073789,0.300079 0.1019103,0.609775 0.1394691,0.916502 0.015065,0.123051 0,0.247942 0,0.371913 0,0.03542 0,0.07084 0,0.10626 0,0.0083 -0.00534,0.03103 0,0.02476 0.1354884,-0.157716 0.2065681,-0.420507 0.3011741,-0.599207 0.10349508,-0.195491 0.26618358,-0.414545 0.35862998,-0.624284 0.0329438,-0.07474 0.0954691,-0.304251 0.19598064,-0.339684 0.0265175,-0.0093 0.003311,0.05643 0,0.08434 -0.015298,0.128539 -0.0241021,0.258802 -0.0557892,0.384309 -0.11432863,0.452849 -0.27327804,0.954262 -0.45825134,1.394676 -0.0442084,0.105256 -0.14614138,0.264762 -0.0597698,0.232976 0.0619144,-0.02278 0.0924705,-0.09416 0.13996047,-0.13996 0.13630868,-0.131464 0.27975391,-0.25568 0.41140245,-0.39181 0.31165171,-0.322265 0.6161638,-0.662489 0.9165019,-0.996198 0.1574009,-0.174891 0.3170847,-0.3467 0.4781749,-0.518023 0.034223,-0.0364 0.1030685,-0.16657 0.092853,-0.117663 -0.069687,0.333646 -0.5043116,0.916736 -0.7265983,1.163721 -0.187519,0.208354 -0.3886752,0.4041 -0.57779543,0.611001 -0.52189492,0.570961 0.18225153,-0.13785 -0.47817411,0.544588 -0.0264573,0.02734 -0.35670448,0.356612 -0.35139268,0.377679 0.00617,0.02455 0.048031,-0.01834 0.067949,-0.03397 0.052087,-0.04087 0.0986559,-0.08836 0.14641456,-0.134216 0.20623248,-0.198003 0.39554385,-0.395191 0.63264701,-0.553083"
       id="path1748" />
    <path
       style="fill:none;stroke:#000000;stroke-width:0.199095px;stroke-linecap:butt;stroke-linejoin:miter;stroke-opacity:1"
       d="m 7.1406068,14.356116 c -0.4697463,-0.06565 -0.9184282,-0.215134 -1.374775,-0.336827 -0.2535736,-0.06762 -0.06886,-0.01844 -0.3560912,-0.06608 -0.0173,-0.0028 -0.066768,-0.02046 -0.051041,-0.01272 0.1222071,0.06014 0.2346711,0.08597 0.3659367,0.126807 0.1701125,0.05292 0.3283658,0.146433 0.4980991,0.199239 0.045186,0.01405 0.094092,0.01312 0.1394668,0.02656 0.1520529,0.04505 0.2602533,0.09381 0.3867721,0.178153 0.025231,0.01682 0.048106,0.03785 0.075686,0.05046 0.00862,0.0039 0.032725,0.0165 0.026962,0.009 -0.202651,-0.263916 -0.4632986,-0.482494 -0.6809109,-0.734467 -0.058498,-0.06773 -0.5064216,-0.594918 -0.5539093,-0.607039 -0.00218,-5.58e-4 0.010775,0.05433 0.099917,0.172495 0.083729,0.111004 0.1594137,0.232467 0.2524929,0.335125 0.018089,0.01995 0.050567,0.08628 0.054502,0.05964 0.050175,-0.339641 -0.3709859,-1.367233 -0.483875,-1.678305 -0.1819475,-0.501367 0.035051,0.0883 -0.1793153,-0.544588 -0.133593,-0.311717 -0.00647,0.01858 -0.039852,-0.131003 -0.00248,-0.01114 -0.02289,-0.03915 -0.015313,-0.03062 0.1492522,0.167945 0.1568756,0.211355 0.2947111,0.433806 0.2432825,0.392634 0.4601145,0.800066 0.6973372,1.195436 0.039844,0.06198 0.079696,0.123972 0.1195441,0.185958 0.013282,0.03099 0.022552,0.06402 0.039852,0.09298 0.035472,0.05938 0.1119297,0.144791 0.1162859,0.142017 0.017992,-0.01146 0.00422,-0.04308 0,-0.06399 -0.03843,-0.191302 -0.07821,-0.382512 -0.1276184,-0.571262 C 6.3858663,12.559194 6.3126444,12.335282 6.2462309,12.109478 6.0868391,11.507332 5.9167935,10.907906 5.7680568,10.30304 5.6916473,9.9923084 5.6706238,9.6693073 5.5887415,9.359974 5.5564975,9.2381576 5.5074055,9.121419 5.4691982,9.0013407 5.4573089,8.9639798 5.4297229,8.8514369 5.4492724,8.8854213 5.7120691,9.342267 5.8251245,9.8674731 5.9609711,10.369061 c 0.1129019,0.411762 0.2258045,0.823523 0.3387072,1.235285 0.033207,0.141681 0.061786,0.284527 0.09962,0.425044 0.085489,0.317534 0.1803222,0.651879 0.2789352,0.969632 0.031747,0.102298 0.086608,0.199184 0.09962,0.305501 0.00579,0.04734 0,0.190763 0,0.143073 0,-0.216909 0.010648,-0.407499 0.039844,-0.621613 0.02794,-0.204908 0.019926,-0.191093 0.019926,-0.411761 0,-0.113456 -0.00816,-0.191875 0,-0.173917 0.1514201,0.333285 0.010648,0.05147 0.068439,0.386877 0.044517,0.258364 0.1023318,0.311488 0.1195426,0.518023 0.00188,0.02221 -0.030604,0.419662 0.0266,0.308634 0.076174,-0.147848 0.1516638,-0.29628 0.2182745,-0.448676 0.2125299,-0.486248 0.4158002,-1.002765 0.5578707,-1.51422 0.091698,-0.330112 -0.098122,0.116048 0.09962,-0.345348 0.010173,-0.02373 0.029241,-0.04288 0.039852,-0.06642 0.00391,-0.0087 -0.00504,-0.03678 0,-0.02866 0.1511077,0.243548 0.034592,0.5994 -0.020113,0.85013 -0.096598,0.442744 -0.2377441,0.871442 -0.378555,1.301698 -0.1316579,0.402288 -0.091554,0.312706 -0.1992399,0.571153 -0.012026,0.02886 -0.1446816,0.264956 -0.053396,0.246992 0.4220135,-0.08305 0.7720049,-0.462521 1.0905877,-0.737378 0.040875,-0.03526 0.2892217,-0.319674 0.3105749,-0.320353 0.00692,-2.19e-4 -0.032124,0.103768 -0.087626,0.195562 -0.134651,0.222711 -0.3392234,0.418774 -0.5379461,0.584435 -0.01894,0.01579 -0.2611127,0.144603 -0.2328607,0.167752 0.00788,0.0065 0.020927,-0.0033 0.030581,0 0.085614,0.02911 0.1652447,0.07691 0.2535042,0.09657 0.2605145,0.05806 0.5726733,0.05314 0.8434132,0.05314"
       id="path1762" />
    <path
       style="fill:none;stroke:#000000;stroke-width:0.199095px;stroke-linecap:butt;stroke-linejoin:miter;stroke-opacity:1"
       d="M 7.7159178,14.198962 C 7.0143543,13.572084 6.4155751,12.864888 5.8147213,12.14255 5.6713807,12.006063 5.5790652,11.829914 5.4560906,11.677659 c -0.028226,-0.03495 -0.099666,-0.137047 -0.098362,-0.09214 0.00579,0.198823 0.4629446,0.772906 0.572595,0.915259 0.1318277,0.171146 0.2817179,0.35837 0.398395,0.544477 0.033907,0.05408 0.0539,0.117651 0.095768,0.165835 0.00422,0.0049 -2.431e-4,-0.01284 0,-0.01925 0.00572,-0.151054 0.02961,-0.302425 0.017887,-0.453131 -0.015666,-0.20138 -0.072675,-0.397537 -0.09962,-0.597719 -0.038558,-0.286429 -0.049612,-0.575927 -0.079696,-0.863371 -0.00459,-0.0442 -0.030152,-0.348991 -0.019926,-0.352715 0.068423,-0.0249 0.1074291,0.100677 0.1461684,0.162329 0.070711,0.112529 0.1447027,0.224154 0.1992398,0.345348 0.2392957,0.53177 0.351741,1.120952 0.4781748,1.686894 0.05363,0.240054 0.1591548,0.489162 0.1591548,0.736783 0,0.0086 -0.0012,-0.01724 0,-0.02575 0.02289,-0.164556 0.053968,-0.328027 0.072171,-0.493167 0.064488,-0.585089 0.096347,-1.178915 0.1195441,-1.76659 0.00474,-0.11945 0,-0.239087 0,-0.35863 0,-0.01096 0,-0.119899 0,-0.108938 0,0.239917 0.013545,0.480215 0,0.719749 -0.011303,0.199914 -0.046737,0.39791 -0.05977,0.597719 -0.013552,0.20776 -0.00512,0.416612 -0.019926,0.624284 -0.029896,0.4185 -0.1176426,0.831082 -0.1593912,1.248566 -0.016758,0.167543 -0.010226,0.336642 -0.019925,0.50474 -0.00422,0.07292 0,0.149519 0,0.222481 0,0.0065 -0.00279,0.02551 0,0.01959 0.071395,-0.153729 0.1067579,-0.324289 0.1779737,-0.480283 0.1190535,-0.260784 0.2505579,-0.514162 0.3782002,-0.769446 0.023282,-0.04655 0.063216,-0.100878 0.095322,-0.140143 0.017495,-0.0214 0.068792,-0.03742 0.055473,-0.06164 -0.013763,-0.02503 -0.4485318,-0.05527 -0.5237765,-0.06029 -0.1103081,-0.0073 -0.2139996,-0.01513 -0.1948421,0 0.2867784,0.226557 0.6626571,0.269775 1.0010137,0.353559 0.054359,0.01346 0.1047201,0.04098 0.1593911,0.05313 0.064879,0.01442 0.320929,0.05809 0.438327,0.06642 0.041003,0.0029 0.084816,0 0.1262849,0 0.00988,0 0.038121,-0.005 0.029633,0 -0.1662823,0.09884 -0.6058584,0.260709 -0.7822256,0.299898"
       id="path1764" />
    <path
       style="fill:none;stroke:#000000;stroke-width:0.199095px;stroke-linecap:butt;stroke-linejoin:miter;stroke-opacity:1"
       d="M 6.8043422,3.2641421 C 6.4590846,3.0053855 6.0579852,2.8473368 5.6768055,2.6548229 4.6935439,2.1582279 6.1965588,2.8687081 5.059163,2.3227563 4.9408184,2.2659513 4.8265469,2.220806 4.7167167,2.1475894 c -0.059973,-0.039979 0.1268131,0.068543 0.1901368,0.102966 0.3230225,0.1755967 0.6509294,0.3335061 0.9762732,0.5047398 0.1056209,0.055593 0.2251816,0.1398236 0.3374182,0.1718147 0.016555,0.00474 0.034772,-0.00347 0.051628,0 0.025456,0.00527 0.078281,0.051395 0.073585,0.025833 C 6.3157944,2.7898297 5.968797,2.4981798 5.8359701,2.3874909 5.7722497,2.3343957 5.7098891,2.2796713 5.6479598,2.2244962 5.6341967,2.2122384 5.5944282,2.1739367 5.6088605,2.1853969 5.7589615,2.3045949 5.9013938,2.4397387 6.0416087,2.5704068 6.1281945,2.651097 6.1563625,2.69459 6.153421,2.6822191 6.1078507,2.4905466 5.9449282,2.085149 5.8905523,1.9209616 5.8132865,1.6876554 5.7485932,1.4503108 5.6713891,1.2169828 5.6318084,1.0973515 5.5916942,0.97789541 5.5518465,0.85835135 c -0.02262,-0.067859 -0.055556,-0.1319074 -0.079696,-0.19923892 -0.00692,-0.0193314 -0.014967,-0.0756735 0,-0.0616059 0.2585105,0.24296048 0.4716741,0.76239777 0.6334424,1.08593267 0.031988,0.063976 0.053479,0.13269 0.079695,0.1992404 0.0073,0.018593 0.01678,0.076652 0.019166,0.056813 0.1003322,-0.8329209 -0.00832,-1.70981204 -0.1237025,-2.53397893 -0.031017,-0.22156578 -0.039852,-0.42654907 -0.039852,-0.65084947 0,-0.049506 0,-0.099016 0,-0.148523 0,-0.013048 -0.00391,-0.051583 0,-0.039144 0.1263247,0.3985516 0.1979032,0.80094078 0.2757319,1.21025955 0.0584,0.30713378 0.149632,0.60782705 0.1992403,0.91650191 0.035382,0.22014066 0.045669,0.44377734 0.079696,0.66413094 0.029249,0.1894356 0.096366,0.3711001 0.1394677,0.5578712 0.046789,0.2027733 0.039844,0.1478269 0.039844,0.3055008 0,0.026202 -0.015373,0.099831 0,0.07861 C 7.0080191,1.977965 7.137156,1.3018839 7.2286767,0.9276662 7.2728257,0.7471348 7.3064307,0.56416984 7.3482209,0.38307785 c 0.051191,-0.22183298 0.1081996,-0.44229793 0.159392,-0.66413089 0.01523,-0.0659929 0.026563,-0.13282617 0.039844,-0.19923889 0.019926,-0.0708389 0.04262,-0.14095901 0.05977,-0.21252178 0.00974,-0.040627 -0.0027,-0.1670205 0,-0.1253292 0.045442,0.70881343 -0.1598488,1.24939401 -0.3795304,1.90843821 -0.021325,0.063976 -0.069123,0.1193522 -0.079696,0.1859575 -0.00826,0.052057 0.00451,0.1056089 0,0.1581217 -0.00233,0.027435 -0.049453,0.018436 -0.01538,0.061628 0.057738,0.073187 0.1933897,-0.00633 0.2748544,-0.051643 C 7.5120132,1.3862081 7.5970002,1.2980297 7.6864096,1.2185554 7.9552427,0.97959286 8.3133452,0.67308661 8.5630622,0.38174898 8.6206872,0.31451458 8.6648258,0.23646016 8.7224541,0.16922724 c 0.022507,-0.0262542 0.056226,-0.0410179 0.079697,-0.0664142 0.1116437,-0.12083309 0.051929,-0.0646684 0.096961,-0.1412254 0.00519,-0.008826 0.010708,-0.0364428 0.014651,-0.0269916 0.010053,0.0240795 0.029753,0.0473086 0.027489,0.0733069 C 8.8863874,0.63853405 8.0949039,1.4983191 7.6669588,2.0094753 7.5908331,2.1004028 7.2944641,2.4816332 7.2686706,2.5769188 c -0.00444,0.016344 0.089091,0.02286 0.1768727,0.014071 0.3662446,-0.036676 0.7403818,-0.073946 1.0958175,-0.1726745 0.1671711,-0.046436 0.2633934,-0.050717 0.4383271,-0.079696 0.1906688,-0.031589 -0.1743708,0.00801 0.098296,-0.022981 0.00981,-0.00113 0.039505,0 0.029633,0 -0.6341445,0 -1.2679676,-0.012476 -1.9018707,-0.026563 -0.1255489,-0.00279 -0.2521754,0 -0.3777852,0 -0.030182,0 -0.1006824,-0.028421 -0.090534,0 0.050116,0.140351 0.8010644,0.5628857 0.9498214,0.662057"
       id="path1766" />
    <path
       style="fill:none;stroke:#000000;stroke-width:0.199095px;stroke-linecap:butt;stroke-linejoin:miter;stroke-opacity:1"
       d="M 6.6960516,2.6896297 C 6.618049,2.5336226 6.5273861,2.3833267 6.4620418,2.2216082 6.1454659,1.4381205 5.8509219,0.64589354 5.5510406,-0.14413542 5.4675433,-0.36410673 5.3932922,-0.58748834 5.3119532,-0.80826631 c -0.090497,-0.24563469 -0.00451,0.054871 -0.039844,-0.185956 -0.00211,-0.014237 -0.027022,-0.050755 -0.019309,-0.03861 0.2397887,0.37738929 0.3274019,0.82396288 0.5061974,1.22923255 0.5598089,1.26890045 -0.2140349,-0.71986301 0.5379463,1.23528545 0.083929,0.2182151 0.1323882,0.4471929 0.2191631,0.6641309 0.014049,0.035126 0.031251,0.069424 0.039844,0.1062621 0.0049,0.020927 -0.016592,0.078124 0,0.064466 C 6.580053,2.2467017 6.579029,2.2082197 6.585568,2.1776907 6.613681,2.0464725 6.636473,1.9141596 6.659763,1.7819986 6.70106,1.5475893 6.742356,1.3131522 6.7793063,1.0780184 6.8474513,0.64438827 6.911465,0.21011859 6.9785467,-0.2236778 c 0.059198,-0.3828336 0.1593918,-0.8243887 0.1593918,-1.2225573 0,-0.077438 0.05603,0.1451857 0.071283,0.221106 0.068657,0.34165929 0.081512,0.65922024 0.05977,1.00948035 -0.028083,0.45249331 -0.066474,0.9045803 -0.1195426,1.35482825 -0.1025538,0.8701504 -0.087592,0.1762001 -0.1394677,0.8102399 -0.021581,0.2637923 -0.019925,0.3323119 -0.019925,0.5313055 0,0.050229 -0.042297,0.17776 0,0.1506743 C 7.113233,2.5525167 7.492549,1.9588401 7.5983881,1.8299923 8.2616469,1.0225456 7.2579651,2.3495688 7.9968675,1.2986868 8.0783651,1.1827787 8.1693059,1.0821453 8.2299681,0.95180608 8.2356117,0.93974379 8.2101327,0.96970767 8.2017349,0.98003922 8.1405805,1.0552899 8.0869789,1.1368577 8.0214812,1.2083586 7.8375711,1.4091258 7.6061922,1.5598386 7.4038385,1.7396641 7.3100143,1.8230431 7.237134,1.9203385 7.146018,2.0040463 7.0555288,2.0871784 6.9022735,2.1560909 6.9209629,2.2991095 c 0.00745,0.056956 0.063946,0.023906 0.094564,0.032973 0.068581,0.02031 0.1298456,0.062343 0.1992389,0.079695 0.1788383,0.044712 0.3743006,0.040664 0.5578699,0.053133 0.031318,0.00211 0.1354139,-0.021476 0.1469503,0.024712 C 7.932672,2.5420255 7.845173,2.6392449 7.843034,2.6419673 7.6952067,2.8300931 7.5082611,2.970441 7.3050872,3.0935767 7.0847066,3.2271412 6.6957718,3.2960115 7.2216802,3.4879347 c 0.098937,0.036104 0.2304444,0.02365 0.3368872,0.039844 0.1549056,0.023568 0.3392837,0.1102916 0.4809508,0.1669589"
       id="path1768" />
    <g
       id="g1774"
       transform="matrix(0.75248377,0,0,0.75248377,-0.0351926,-0.04111991)"
       style="stroke:#000000;stroke-opacity:1">
      <ellipse
         style="fill:#ffffff;fill-opacity:1;stroke:#000000;stroke-width:0.529167;stroke-miterlimit:4;stroke-dasharray:none;stroke-opacity:1"
         id="path1760"
         cx="6.7442565"
         cy="6.7529054"
         rx="5.5950484"
         ry="3.4636898"
         transform="rotate(-14.275789)" />
      <path
         style="fill:none;stroke:#000000;stroke-width:0.529167;stroke-linecap:butt;stroke-linejoin:miter;stroke-miterlimit:4;stroke-dasharray:none;stroke-opacity:1"
         d="M 3.8641917,4.5226647 4.5022212,7.73826 c 0,0 -0.4956727,-2.8622669 0.7577785,-3.1877082 1.2534516,-0.3254413 1.8933287,2.3354544 1.8933287,2.3354544"
         id="path1754" />
      <path
         style="fill:none;stroke:#000000;stroke-width:0.529167;stroke-linecap:butt;stroke-linejoin:miter;stroke-miterlimit:4;stroke-dasharray:none;stroke-opacity:1"
         d="M 7.9208845,5.3794186 9.8982653,4.7875082"
         id="path1756" />
      <path
         style="fill:none;stroke:#000000;stroke-width:0.529167;stroke-linecap:butt;stroke-linejoin:miter;stroke-miterlimit:4;stroke-dasharray:none;stroke-opacity:1"
         d="M 10.456612,3.1129673 11.038274,2.3197087 11.89183,5.4449042"
         id="path1758"
         sodipodi:nodetypes="ccc" />
    </g>
  </g>
</svg>
